<?xml version="1.0" encoding="utf-8"?>
<!-- Generator: Adobe Illustrator 23.0.1, SVG Export Plug-In . SVG Version: 6.00 Build 0)  -->
<!DOCTYPE svg PUBLIC "-//W3C//DTD SVG 1.1//EN" "http://www.w3.org/Graphics/SVG/1.1/DTD/svg11.dtd" [
	<!ENTITY ns_extend "http://ns.adobe.com/Extensibility/1.0/">
	<!ENTITY ns_ai "http://ns.adobe.com/AdobeIllustrator/10.0/">
	<!ENTITY ns_graphs "http://ns.adobe.com/Graphs/1.0/">
	<!ENTITY ns_vars "http://ns.adobe.com/Variables/1.0/">
	<!ENTITY ns_imrep "http://ns.adobe.com/ImageReplacement/1.0/">
	<!ENTITY ns_sfw "http://ns.adobe.com/SaveForWeb/1.0/">
	<!ENTITY ns_custom "http://ns.adobe.com/GenericCustomNamespace/1.0/">
	<!ENTITY ns_adobe_xpath "http://ns.adobe.com/XPath/1.0/">
]>
<svg version="1.1" xmlns:x="&ns_extend;" xmlns:i="&ns_ai;" xmlns:graph="&ns_graphs;"
	 xmlns="http://www.w3.org/2000/svg" xmlns:xlink="http://www.w3.org/1999/xlink" x="0px" y="0px" viewBox="0 0 1500 500"
	 style="enable-background:new 0 0 1500 500;" xml:space="preserve">
<style type="text/css">
	.st0{fill:#FFFFFF;}
	.st1{fill:none;stroke:#9B59B6;stroke-width:3.25;stroke-linecap:round;stroke-linejoin:round;}
	.st2{fill:none;stroke:#9B59B6;stroke-width:3.25;stroke-linecap:round;stroke-linejoin:round;stroke-dasharray:3.9383,6.892;}
	.st3{fill:none;stroke:#9B59B6;stroke-width:3.25;stroke-linecap:round;stroke-linejoin:round;stroke-dasharray:4.0409,7.0716;}
	.st4{fill:none;stroke:#9B59B6;stroke-width:3.25;stroke-linecap:round;stroke-linejoin:round;stroke-dasharray:3.9518,6.9157;}
	.st5{fill:none;stroke:#9B59B6;stroke-width:3.25;stroke-linecap:round;stroke-linejoin:round;stroke-dasharray:4.063,7.1102;}
	.st6{fill:none;stroke:#9B59B6;stroke-width:3.25;stroke-linecap:round;stroke-linejoin:round;stroke-dasharray:4.0631,7.1104;}
	.st7{fill:none;stroke:#9B59B6;stroke-width:3.25;stroke-linecap:round;stroke-linejoin:round;stroke-dasharray:3.9914,6.985;}
	.st8{fill:none;stroke:#9B59B6;stroke-width:3.25;stroke-linecap:round;stroke-linejoin:round;stroke-dasharray:3.9704,6.9481;}
	.st9{fill:none;stroke:#9B59B6;stroke-width:3.25;stroke-linecap:round;stroke-linejoin:round;stroke-dasharray:3.9244,6.8676;}
	.st10{fill:none;stroke:#9B59B6;stroke-width:3.25;stroke-linecap:round;stroke-linejoin:round;stroke-dasharray:4.1376,7.2407;}
	.st11{fill:none;stroke:#9B59B6;stroke-width:3.25;stroke-linecap:round;stroke-linejoin:round;stroke-dasharray:4.1377,7.2409;}
	.st12{fill:none;stroke:#9B59B6;stroke-width:3.25;stroke-linecap:round;stroke-linejoin:round;stroke-dasharray:4.012,7.021;}
	.st13{fill:none;stroke:#9B59B6;stroke-width:3.25;stroke-linecap:round;stroke-linejoin:round;stroke-dasharray:3.9677,6.9435;}
	.st14{fill:none;stroke:#9B59B6;stroke-width:3.25;stroke-linecap:round;stroke-linejoin:round;stroke-dasharray:4.031,7.0542;}
	.st15{fill:none;stroke:#9B59B6;stroke-width:3.25;stroke-linecap:round;stroke-linejoin:round;stroke-dasharray:3.987,6.9772;}
	.st16{fill:none;stroke:#9B59B6;stroke-width:3.25;stroke-linecap:round;stroke-linejoin:round;stroke-dasharray:4.1032,7.1806;}
	.st17{fill:none;stroke:#9B59B6;stroke-width:3.25;stroke-linecap:round;stroke-linejoin:round;stroke-dasharray:3.9755,6.9571;}
	.st18{fill:none;stroke:#9B59B6;stroke-width:3.25;stroke-linecap:round;stroke-linejoin:round;stroke-dasharray:4.0273,7.0478;}
	.st19{fill:none;stroke:#000000;stroke-width:3.25;stroke-linecap:round;stroke-linejoin:round;}
	.st20{fill:none;stroke:#000000;stroke-width:3.25;stroke-linecap:round;stroke-linejoin:round;stroke-dasharray:4.0257,7.045;}
	.st21{fill:none;stroke:#000000;stroke-width:3.25;stroke-linecap:round;stroke-linejoin:round;stroke-dasharray:3.9667,6.9418;}
	.st22{fill:none;stroke:#9B59B6;stroke-width:3.25;stroke-linecap:round;stroke-linejoin:round;stroke-dasharray:4.0257,7.045;}
	.st23{fill:none;stroke:#9B59B6;stroke-width:3.25;stroke-linecap:round;stroke-linejoin:round;stroke-dasharray:3.9667,6.9418;}
	.st24{fill:none;stroke:#000000;stroke-width:3.25;stroke-linecap:round;stroke-linejoin:round;stroke-dasharray:4.0404,7.0707;}
	.st25{fill:none;stroke:#9B59B6;stroke-width:3.25;stroke-linecap:round;stroke-linejoin:round;stroke-dasharray:4.0404,7.0707;}
	.st26{fill:#9B59B6;}
	.st27{fill:none;stroke:#9B59B6;stroke-width:2;stroke-linecap:round;stroke-linejoin:round;stroke-miterlimit:10;}
	.st28{fill:none;stroke:#9B59B6;stroke-width:2.75;stroke-linecap:round;stroke-linejoin:round;stroke-miterlimit:10;}
	.st29{fill:none;stroke:#000000;stroke-width:2.75;stroke-linecap:round;stroke-linejoin:round;stroke-miterlimit:10;}
	.st30{fill:none;stroke:#9B59B6;stroke-width:3.25;stroke-linecap:round;stroke-linejoin:round;stroke-miterlimit:10;}
	.st31{fill:none;stroke:#000000;stroke-width:3.25;stroke-linecap:round;stroke-linejoin:round;stroke-miterlimit:10;}
</style>
<metadata>
	<sfw  xmlns="&ns_sfw;">
		<slices></slices>
		<sliceSourceBounds  bottomLeftOrigin="true" height="3748" width="12762" x="-5285" y="-939"></sliceSourceBounds>
	</sfw>
</metadata>
<g id="FILL-BACKGROUND">
</g>
<g id="AG-DIAGRAM">
	<g id="POLYLINE_825_">
		<g>
			<g>
				<line class="st1" x1="550.37" y1="423.04" x2="552.37" y2="423.04"/>
				<line class="st15" x1="559.35" y1="423.04" x2="753.21" y2="423.04"/>
				<line class="st1" x1="756.7" y1="423.04" x2="758.7" y2="423.04"/>
			</g>
		</g>
	</g>
	<g>
		<g>
			<line class="st1" x1="120.5" y1="95.1" x2="120.5" y2="97.1"/>
			<line class="st17" x1="120.5" y1="104.06" x2="120.5" y2="417.63"/>
			<polyline class="st1" points="120.5,421.1 120.5,423.1 122.5,423.1 			"/>
			<line class="st18" x1="129.55" y1="423.1" x2="413.98" y2="423.1"/>
			<line class="st1" x1="417.5" y1="423.1" x2="419.5" y2="423.1"/>
		</g>
	</g>
</g>
<g id="N-TEXT">
</g>
<g id="N-DIMS">
</g>
<g id="AG-DASH">
</g>
<g id="AG-FIXTURE">
	<g id="POLYLINE_1441_">
		<line class="st28" x1="991.3" y1="124.85" x2="1060.5" y2="124.85"/>
	</g>
	<g id="POLYLINE_1440_">
		<path class="st28" d="M1060.5,124.85c3.59,0.01,7.17,1.12,9.27,4.21c2.01,2.96,2.29,6.67,2.29,10.14c0,5.82,0,11.65,0,17.47
			c0,2.61,0,5.22,0,7.82c0,1.44,0.03,2.89-0.29,4.31c-0.47,2.08-1.54,4.07-3.05,5.58c-1.38,1.38-3.08,2.05-4.87,2.7
			c-4.56,1.65-9.12,3.24-13.76,4.66c-4.72,1.45-9.47,2.73-14.26,3.93c-4.31,1.08-8.71,1.94-13.1,2.65
			c-4.53,0.74-9.1,1.32-13.68,1.75c-4.82,0.45-9.63,0.75-14.47,0.9c-1.1,0.03-2.19,0.07-3.29,0.1"/>
	</g>
	<g id="POLYLINE_1439_">
		<path class="st28" d="M1068.13,174.93c0,1.62,0,3.24,0,4.86c0,4.23,0,8.46,0,12.7c0,5.91,0,11.82,0,17.73c0,6.65,0,13.3,0,19.95
			c0,6.46,0,12.91,0,19.37c0,5.3,0,10.61,0,15.91c0,3.27,0,6.54,0,9.81c0,2.53-0.02,5.07-0.06,7.6c-0.07,4.11-0.21,8.24-0.5,12.35
			c-0.33,4.75-0.76,9.49-1.3,14.22c-0.47,4.16-1.11,8.31-1.87,12.43c-0.8,4.38-1.71,8.75-2.82,13.06
			c-1.15,4.48-2.48,8.88-3.95,13.26c-1.33,3.95-2.87,7.85-4.6,11.64c-1.84,4.03-3.8,8-6.04,11.83c-2.2,3.76-4.57,7.42-7.17,10.91
			c-2.68,3.6-5.6,7.01-8.7,10.27c-2.98,3.13-6.21,6.04-9.69,8.59c-3.49,2.56-7.31,4.67-11.37,6.17c-3.98,1.46-8.16,2.26-12.36,2.75
			c-2.13,0.25-4.26,0.42-6.4,0.61"/>
	</g>
	<g id="POLYLINE_1438_">
		<path class="st28" d="M993.89,275.03c3.4,0.14,7.08,0.27,10.3,1.48c2.64,1,4.17,3.08,4.2,5.93c0.03,2.89-1.69,5.79-3.21,8.13
			c-0.96,1.49-2.1,2.86-3.29,4.16c-1.24,1.36-2.5,2.74-4.09,3.7c-2.58,1.56-5.76,2.18-8.71,1.59c-3.67-0.73-6.15-2.85-8.59-5.55
			c-2.29-2.53-4.26-5.41-5.53-8.59c-0.81-2.01-1.06-4.22-0.11-6.23c1.1-2.32,3.57-3.44,5.97-3.88c3.42-0.62,6.99-0.77,10.46-0.78
			C992.15,274.99,993.02,275.02,993.89,275.03z"/>
	</g>
	<g id="POLYLINE_1437_">
		<path class="st28" d="M991.3,245.18c-6.48-0.06-12.71,0.98-18.83,3.1c-5.94,2.06-11.67,5.04-16.42,9.2
			c-4.94,4.33-8.74,9.84-11.37,15.84c-2.66,6.06-4.02,12.58-4.84,19.12c-0.81,6.47-0.98,13.05-0.45,19.55
			c0.53,6.55,1.77,13.03,3.4,19.38c1.62,6.34,3.74,12.57,6.42,18.54c2.61,5.82,5.74,11.43,9.33,16.7c3.68,5.4,7.71,10.72,12.49,15.2
			c4.58,4.29,9.83,7.19,16.09,8.03c5.7,0.77,11.82,0.04,16.98-2.6c5.55-2.84,10.06-7.66,13.9-12.48c4.19-5.26,8-10.78,11.27-16.67
			c3.08-5.54,5.73-11.37,7.73-17.39c2.1-6.33,3.83-12.76,4.97-19.33c1.15-6.56,1.68-13.2,1.48-19.86
			c-0.19-6.48-0.97-13.04-2.55-19.33c-1.6-6.36-4.2-12.49-8.08-17.8c-3.78-5.16-8.61-9.36-14.24-12.39
			c-5.63-3.02-11.82-5.2-18.13-6.21C997.42,245.29,994.38,245.15,991.3,245.18z"/>
	</g>
	<g id="POLYLINE_1436_">
		<path class="st28" d="M914.48,174.93c0,1.62,0,3.24,0,4.86c0,4.23,0,8.46,0,12.7c0,5.91,0,11.82,0,17.73c0,6.65,0,13.3,0,19.95
			c0,6.46,0,12.91,0,19.37c0,5.3,0,10.61,0,15.91c0,3.27,0,6.54,0,9.81c0,2.53,0.02,5.07,0.06,7.6c0.07,4.11,0.21,8.24,0.5,12.35
			c0.34,4.75,0.76,9.49,1.3,14.22c0.47,4.16,1.11,8.31,1.87,12.43c0.8,4.38,1.71,8.75,2.82,13.06c1.15,4.48,2.48,8.88,3.95,13.26
			c1.33,3.95,2.87,7.85,4.6,11.64c1.84,4.03,3.8,8,6.04,11.83c2.2,3.76,4.57,7.42,7.17,10.91c2.68,3.6,5.6,7.01,8.7,10.27
			c2.98,3.13,6.21,6.04,9.69,8.59c3.49,2.56,7.31,4.67,11.37,6.17c3.98,1.46,8.16,2.26,12.36,2.75c2.13,0.25,4.26,0.42,6.4,0.61"/>
	</g>
	<g id="POLYLINE_1435_">
		<path class="st28" d="M1019.87,222.19c-3.09-0.01-4.41-4.07-1.91-5.88c2.26-1.65,5.52,0.3,5.14,3.08
			C1022.87,220.98,1021.47,222.19,1019.87,222.19z"/>
	</g>
	<g id="POLYLINE_1434_">
		<path class="st28" d="M962.74,222.19c3.09-0.01,4.41-4.07,1.91-5.88c-2.26-1.65-5.52,0.3-5.14,3.08
			C959.73,220.98,961.14,222.19,962.74,222.19z"/>
	</g>
	<g id="POLYLINE_1433_">
		<path class="st28" d="M922.11,124.85c-3.59,0.01-7.17,1.12-9.27,4.21c-2.01,2.96-2.29,6.67-2.29,10.14c0,5.82,0,11.65,0,17.47
			c0,2.61,0,5.22,0,7.82c0,1.44-0.03,2.89,0.29,4.31c0.47,2.08,1.54,4.07,3.05,5.58c1.38,1.38,3.08,2.05,4.87,2.7
			c4.56,1.65,9.12,3.24,13.76,4.66c4.72,1.45,9.47,2.73,14.26,3.93c4.31,1.08,8.71,1.94,13.1,2.65c4.53,0.74,9.1,1.32,13.68,1.75
			c4.82,0.45,9.63,0.75,14.47,0.9c1.1,0.03,2.19,0.07,3.29,0.1"/>
	</g>
	<g id="POLYLINE_1432_">
		<line class="st28" x1="991.3" y1="124.85" x2="922.11" y2="124.85"/>
	</g>
	<g id="POLYLINE_1431_">
		<path class="st28" d="M991.34,163.93c5.67-0.02,8.35-7.33,3.97-10.98c-4.38-3.65-11.15,0.35-10.07,5.95
			C985.8,161.79,988.39,163.93,991.34,163.93z"/>
	</g>
	<g id="POLYLINE_1430_">
		<path class="st28" d="M991.34,167.85c4.22-0.02,8.08-2.7,9.52-6.68c1.44-3.99,0.18-8.58-3.11-11.27
			c-3.26-2.67-7.98-3.02-11.6-0.86c-3.62,2.16-5.55,6.48-4.75,10.62c0.81,4.17,4.25,7.46,8.45,8.09
			C989.98,167.76,991.34,167.89,991.34,167.85z"/>
	</g>
	<g id="POLYLINE_1429_">
		<path class="st28" d="M1359.79,259.07c-0.23-8.53-0.44-17.06-0.9-25.58c-0.21-4.01-0.69-7.99-1.14-11.97
			c-0.35-3.17-0.95-6.4-2.71-9.12c-1.77-2.73-4.43-4.8-7.64-5.49c-2.74-0.59-5.68-0.44-8.47-0.48c-10.52-0.17-21.03-0.34-31.55-0.51
			c-4.61-0.07-9.22,0.02-13.82,0.05c-11.4,0.08-22.8,0.16-34.21,0.24c-10.03,0.07-20.06,0.14-30.09,0.21
			c-5.24,0.04-11.35-0.69-15.63,2.87c-5.47,4.54-5.6,12.27-6.17,18.79c-0.78,8.78-0.95,17.57-1.2,26.38
			c-0.04,1.54-0.08,3.09-0.13,4.63"/>
	</g>
	<g id="POLYLINE_1428_">
		<path class="st28" d="M1283,167.85c4.22-0.02,8.08-2.7,9.52-6.68c1.44-3.99,0.18-8.58-3.11-11.27c-3.26-2.67-7.98-3.02-11.6-0.86
			c-3.62,2.16-5.55,6.48-4.75,10.62c0.81,4.17,4.25,7.46,8.45,8.09C1281.65,167.76,1283,167.89,1283,167.85z"/>
	</g>
	<g id="POLYLINE_1427_">
		<path class="st28" d="M1283,163.93c5.67-0.02,8.35-7.33,3.97-10.98c-4.38-3.65-11.15,0.35-10.07,5.95
			C1277.47,161.79,1280.06,163.93,1283,163.93z"/>
	</g>
	<g id="POLYLINE_1426_">
		<line class="st28" x1="1282.97" y1="124.85" x2="1213.77" y2="124.85"/>
	</g>
	<g id="POLYLINE_1425_">
		<path class="st28" d="M1213.77,124.85c-3.59,0.01-7.17,1.12-9.27,4.21c-2.01,2.96-2.29,6.67-2.29,10.14c0,5.82,0,11.65,0,17.47
			c0,2.61,0,5.22,0,7.82c0,1.44-0.03,2.89,0.29,4.31c0.47,2.08,1.54,4.07,3.05,5.58c1.38,1.38,3.08,2.05,4.87,2.7
			c4.56,1.65,9.12,3.24,13.76,4.66c4.72,1.45,9.47,2.73,14.26,3.93c4.31,1.08,8.71,1.94,13.1,2.65c4.53,0.74,9.1,1.32,13.68,1.75
			c4.82,0.45,9.63,0.75,14.47,0.9c1.09,0.03,2.19,0.07,3.29,0.1"/>
	</g>
	<g id="POLYLINE_1424_">
		<path class="st28" d="M1206.15,174.93c0,1.62,0,3.24,0,4.86c0,4.23,0,8.46,0,12.7c0,5.91,0,11.82,0,17.73c0,6.65,0,13.3,0,19.95
			c0,6.46,0,12.91,0,19.37c0,5.3,0,10.61,0,15.91c0,3.27,0,6.54,0,9.81c0,2.53,0.02,5.07,0.06,7.6c0.07,4.11,0.21,8.24,0.5,12.35
			c0.34,4.75,0.76,9.49,1.3,14.22c0.47,4.16,1.11,8.31,1.87,12.43c0.8,4.38,1.71,8.75,2.82,13.06c1.15,4.48,2.48,8.88,3.95,13.26
			c1.33,3.95,2.87,7.85,4.6,11.64c1.84,4.03,3.8,8,6.04,11.83c2.2,3.76,4.57,7.42,7.17,10.91c2.68,3.6,5.6,7.01,8.7,10.27
			c2.98,3.13,6.21,6.04,9.69,8.59c3.49,2.56,7.31,4.67,11.37,6.17c3.98,1.46,8.16,2.26,12.36,2.75c2.13,0.25,4.26,0.42,6.4,0.61"/>
	</g>
	<g id="POLYLINE_1423_">
		<path class="st28" d="M1359.79,174.93c0,1.62,0,3.24,0,4.86c0,4.23,0,8.46,0,12.7c0,5.91,0,11.82,0,17.73c0,6.65,0,13.3,0,19.95
			c0,6.46,0,12.91,0,19.37c0,5.3,0,10.61,0,15.91c0,3.27,0,6.54,0,9.81c0,2.53-0.02,5.07-0.06,7.6c-0.07,4.11-0.21,8.24-0.5,12.35
			c-0.34,4.75-0.76,9.49-1.3,14.22c-0.47,4.16-1.11,8.31-1.87,12.43c-0.8,4.38-1.71,8.75-2.82,13.06
			c-1.15,4.48-2.48,8.88-3.95,13.26c-1.33,3.95-2.87,7.85-4.6,11.64c-1.84,4.03-3.8,8-6.04,11.83c-2.2,3.76-4.57,7.42-7.17,10.91
			c-2.68,3.6-5.6,7.01-8.7,10.27c-2.98,3.13-6.21,6.04-9.69,8.59c-3.49,2.56-7.31,4.67-11.37,6.17c-3.98,1.46-8.16,2.26-12.36,2.75
			c-2.13,0.25-4.26,0.42-6.4,0.61"/>
	</g>
	<g id="POLYLINE_1422_">
		<path class="st28" d="M1352.16,124.85c3.59,0.01,7.17,1.12,9.27,4.21c2.01,2.96,2.29,6.67,2.29,10.14c0,5.82,0,11.65,0,17.47
			c0,2.61,0,5.22,0,7.82c0,1.44,0.03,2.89-0.29,4.31c-0.47,2.08-1.54,4.07-3.05,5.58c-1.38,1.38-3.08,2.05-4.87,2.7
			c-4.56,1.65-9.12,3.24-13.76,4.66c-4.72,1.45-9.47,2.73-14.26,3.93c-4.31,1.08-8.71,1.94-13.1,2.65
			c-4.53,0.74-9.1,1.32-13.68,1.75c-4.82,0.45-9.63,0.75-14.47,0.9c-1.09,0.03-2.19,0.07-3.29,0.1"/>
	</g>
	<g id="POLYLINE_1421_">
		<line class="st28" x1="1282.97" y1="124.85" x2="1352.16" y2="124.85"/>
	</g>
	<g id="POLYLINE_1420_">
		<path class="st28" d="M289.43,256.59c2.03,0.69,4.06,1.31,6.19,1.59c2.11,0.28,4.24,0.26,6.37,0.28"/>
	</g>
	<g id="POLYLINE_1419_">
		<line class="st28" x1="301.98" y1="258.47" x2="414.22" y2="258.47"/>
	</g>
	<g id="POLYLINE_1418_">
		<path class="st28" d="M414.22,258.47c0.76-0.01,1.44-0.52,1.64-1.27"/>
	</g>
	<g id="POLYLINE_1417_">
		<path class="st28" d="M415.87,257.15c0.57-2.73,1.05-5.49,1.51-8.24c0.41-2.51,0.81-5,0.69-7.55"/>
	</g>
	<g id="POLYLINE_1416_">
		<path class="st28" d="M418.07,241.36c-0.06-0.81-0.69-1.48-1.5-1.57"/>
	</g>
	<g id="POLYLINE_1415_">
		<path class="st28" d="M416.57,239.78c-6.47-0.63-12.93-1.3-19.43-1.6c-6.63-0.3-13.27-0.37-19.91-0.55
			c-7.13-0.2-14.26-0.29-21.39-0.59c-6.98-0.29-13.95-0.91-20.92-1.36c-5.47-0.36-10.94-0.8-16.39-1.44
			c-6.63-0.78-13.27-1.52-19.85-2.7c-6.28-1.13-12.52-2.35-18.73-3.8c-7.11-1.66-14.18-3.38-21.25-5.19
			c-6.28-1.61-12.52-3.37-18.72-5.25c-6.34-1.92-12.59-4.11-18.83-6.33c-1.33-0.47-2.65-0.94-3.98-1.42"/>
	</g>
	<g id="POLYLINE_1414_">
		<path class="st28" d="M217.17,209.55c-0.74-0.26-1.56,0-2,0.65"/>
	</g>
	<g id="POLYLINE_1413_">
		<path class="st28" d="M215.17,210.2c-2.52,3.95-4.81,8.11-5.9,12.7c-0.33,1.39-0.55,2.78-0.72,4.2"/>
	</g>
	<g id="POLYLINE_1412_">
		<path class="st28" d="M208.55,227.1c-0.07,0.78,0.38,1.52,1.13,1.78"/>
	</g>
	<g id="POLYLINE_1411_">
		<line class="st28" x1="209.67" y1="228.88" x2="289.43" y2="256.59"/>
	</g>
	<g id="POLYLINE_1410_">
		<path class="st28" d="M283.86,260.59c1.68-0.03,2.12-2.42,0.5-2.99"/>
	</g>
	<g id="POLYLINE_1409_">
		<line class="st28" x1="284.37" y1="257.6" x2="209.8" y2="231.69"/>
	</g>
	<g id="POLYLINE_1408_">
		<path class="st28" d="M209.8,231.69c-0.92-0.29-1.93,0.3-2.03,1.3"/>
	</g>
	<g id="POLYLINE_1407_">
		<path class="st28" d="M207.77,232.98c-0.59,6.8-1.02,13.58-0.97,20.4c0.01,1.91,0.06,3.81,0.11,5.72"/>
	</g>
	<g id="POLYLINE_1406_">
		<path class="st28" d="M206.9,259.11c0.04,0.81,0.71,1.48,1.54,1.48"/>
	</g>
	<g id="POLYLINE_1405_">
		<line class="st28" x1="208.44" y1="260.59" x2="283.86" y2="260.59"/>
	</g>
	<g id="POLYLINE_1404_">
		<path class="st28" d="M188.19,255.43c1.94-0.02,3-1.29,3.16-3.17"/>
	</g>
	<g id="POLYLINE_1403_">
		<line class="st28" x1="191.35" y1="252.26" x2="193.88" y2="139.46"/>
	</g>
	<g id="POLYLINE_1402_">
		<path class="st28" d="M193.88,139.46c0.03-1.21-0.49-2.29-1.83-2.36"/>
	</g>
	<g id="POLYLINE_1401_">
		<path class="st28" d="M192.05,137.11c1.17-0.02,1.64-0.88,1.63-1.95"/>
	</g>
	<g id="POLYLINE_1400_">
		<path class="st28" d="M193.69,135.15c0.09-2.7,0.13-5.39,0.02-8.08c-0.06-1.34-0.17-2.67-0.3-4c-0.09-0.87-0.39-1.52-1.06-2.1
			c-1.68-1.43-4.22-1.82-6.33-2.1c-2.23-0.3-4.47-0.38-6.72-0.39c-5.36-0.02-10.71,0-16.07,0c-7.19,0-14.38,0-21.57,0
			c-3.53,0-7.62-0.38-10.79,1.42c-1.36,0.77-2.29,2.03-2.45,3.6c-0.3,2.97-0.23,6.01-0.29,8.98c-0.02,1.08-0.2,2.31,0.03,3.37
			c0.22,1,1.18,1.22,2.07,1.24c1.06,0.03,2.13,0,3.2,0c6.31,0,12.62,0,18.93,0c7.96,0,15.92,0,23.88,0c5.03,0,10.05,0,15.08,0
			c0.25,0,0.49,0,0.74,0"/>
	</g>
	<g id="POLYLINE_1399_">
		<line class="st28" x1="170.9" y1="118.49" x2="160.78" y2="118.49"/>
	</g>
	<g id="POLYLINE_1398_">
		<line class="st28" x1="160.78" y1="118.49" x2="150.66" y2="118.49"/>
	</g>
	<g id="POLYLINE_1397_">
		<line class="st28" x1="150.66" y1="118.49" x2="150.66" y2="116.54"/>
	</g>
	<g id="POLYLINE_1396_">
		<line class="st28" x1="150.66" y1="116.54" x2="160.78" y2="116.54"/>
	</g>
	<g id="POLYLINE_1395_">
		<line class="st28" x1="160.78" y1="116.54" x2="153.94" y2="116.54"/>
	</g>
	<g id="POLYLINE_1394_">
		<line class="st28" x1="153.94" y1="116.54" x2="153.94" y2="114.6"/>
	</g>
	<g id="POLYLINE_1393_">
		<line class="st28" x1="153.94" y1="114.6" x2="160.78" y2="114.6"/>
	</g>
	<g id="POLYLINE_1392_">
		<line class="st28" x1="160.78" y1="114.6" x2="167.62" y2="114.6"/>
	</g>
	<g id="POLYLINE_1391_">
		<line class="st28" x1="167.62" y1="114.6" x2="167.62" y2="116.54"/>
	</g>
	<g id="POLYLINE_1390_">
		<line class="st28" x1="167.62" y1="116.54" x2="160.78" y2="116.54"/>
	</g>
	<g id="POLYLINE_1389_">
		<line class="st28" x1="160.78" y1="116.54" x2="170.9" y2="116.54"/>
	</g>
	<g id="POLYLINE_1388_">
		<line class="st28" x1="170.9" y1="116.54" x2="170.9" y2="118.49"/>
	</g>
	<g id="POLYLINE_1387_">
		<path class="st28" d="M157.76,423.04c1.09-7.98,2.31-15.96,3.24-23.97c0.95-8.12,1.97-16.24,2.79-24.37
			c1.13-11.26,2.26-22.52,3.4-33.78c0.72-7.15,1.28-14.33,1.7-21.5c0.31-5.32,0.56-10.65,0.84-15.97c0.18-3.48,0.27-6.87-1.04-10.17
			c-1.32-3.33-3.69-6.47-6.88-8.2c-2.96-1.61-6.32-1.35-9.57-1.35c-5.51,0-11.02,0-16.52,0c-2.32,0-4.3-0.62-5.19-3.01
			c-0.41-1.1-0.38-2.25-0.38-3.41c0-2.56,0-5.12,0-7.67c0-3.02,0-6.05,0-9.07c0-1.09-0.24-2.58,0.21-3.63
			c0.95-2.2,4.83-1.5,6.69-1.5c5.29,0,10.59,0,15.88,0c11.08,0,22.15,0,33.23,0c0.68,0,1.37,0,2.05,0"/>
	</g>
	<g id="POLYLINE_1386_">
		<path class="st28" d="M188.19,255.43c0,2.05,0.92,3.82,2.89,4.6c1.24,0.49,2.57,0.55,3.89,0.56c2.66,0.01,5.32,0,7.97,0
			c5.56,0,11.12,0,16.68,0c7.75,0,15.5,0,23.25,0c9.23,0,18.45,0,27.68,0c10.02,0,20.04,0,30.06,0c10.03,0,20.07,0,30.1,0
			c9.36,0,18.73,0,28.09,0c7.98,0,15.96,0,23.94,0c5.88,0,11.76,0,17.64,0c3.07,0,6.13,0,9.2,0c0.68,0,1.37-0.03,2.03,0.1
			c2.73,0.51,2.54,3.03,1.97,5.12c-1.81,6.59-3.81,13.11-6.24,19.5c-2.34,6.16-5.09,12.16-8.33,17.89
			c-3.41,6.04-7.32,11.78-11.09,17.6c-3.5,5.4-7.11,10.76-10.22,16.4c-3.31,5.98-6.23,12.12-8.82,18.45
			c-2.4,5.88-4.4,11.95-6.05,18.08c-1.72,6.4-3,12.9-3.91,19.46c-0.89,6.47-1.49,13.03-1.52,19.56c-0.02,3.44,0.03,6.86,0.12,10.29
			c-1.98,0-3.95,0-5.93,0c-5.34,0-10.67,0-16.01,0c-7.94,0-15.88,0-23.81,0c-9.62,0-19.25,0-28.87,0c-10.57,0-21.14,0-31.72,0
			c-10.67,0-21.34,0-32.01,0c-9.95,0-19.9,0-29.85,0c-8.41,0-16.81,0-25.22,0c-6.03,0-12.06,0-18.08,0c-1.89,0-3.78,0-5.66,0
			c-0.95,0-2.01,0.14-2.95,0c-0.12-0.02-0.24,0-0.36,0c0.35-2.99,0.69-5.98,1.04-8.97c0.74-6.44,1.49-12.88,2.23-19.32
			c0.7-6.1,1.41-12.19,2.11-18.29c0.26-2.28,0.56-4.55,0.78-6.84c0.51-5.45,1.03-10.9,1.54-16.35c0.4-4.28,0.85-8.55,1.21-12.83
			c0.38-4.52,0.73-9.05,0.97-13.58c0.25-4.66,0.66-9.4,0.3-14.06c-0.34-4.4-1.68-8.65-3.07-12.82c-1.51-4.54-3.15-9.03-4.79-13.52
			c-0.33-0.91-0.66-1.82-0.99-2.73"/>
	</g>
	<g id="POLYLINE_1385_">
		<line class="st28" x1="657.97" y1="260.59" x2="733.39" y2="260.59"/>
	</g>
	<g id="POLYLINE_1384_">
		<path class="st28" d="M733.39,260.59c0.82-0.01,1.5-0.66,1.53-1.48"/>
	</g>
	<g id="POLYLINE_1383_">
		<line class="st28" x1="734.92" y1="259.11" x2="738.82" y2="140.32"/>
	</g>
	<g id="POLYLINE_1382_">
		<path class="st28" d="M738.82,140.32c0.05-1.55-0.58-3-2.33-3.09"/>
	</g>
	<g id="POLYLINE_1381_">
		<line class="st28" x1="736.42" y1="137.23" x2="657.97" y2="137.23"/>
	</g>
	<g id="POLYLINE_1380_">
		<line class="st28" x1="657.97" y1="137.23" x2="579.52" y2="137.23"/>
	</g>
	<g id="POLYLINE_1379_">
		<path class="st28" d="M579.52,137.23c-1.78,0.08-2.46,1.49-2.41,3.09"/>
	</g>
	<g id="POLYLINE_1378_">
		<line class="st28" x1="577.11" y1="140.32" x2="581.02" y2="259.11"/>
	</g>
	<g id="POLYLINE_1377_">
		<path class="st28" d="M581.02,259.11c0.04,0.82,0.71,1.48,1.53,1.48"/>
	</g>
	<g id="POLYLINE_1376_">
		<line class="st28" x1="582.55" y1="260.59" x2="657.97" y2="260.59"/>
	</g>
	<g id="POLYLINE_1375_">
		<path class="st28" d="M579.93,225.99c-0.07-2.91,0.18-5.91,1.59-8.52c1.24-2.29,3.28-3.93,5.69-4.85
			c1.64-0.63,3.35-0.91,5.08-1.07"/>
	</g>
	<g id="POLYLINE_1374_">
		<path class="st28" d="M592.29,211.56c8.99-0.59,17.95-1.05,26.95-1.42c8.8-0.35,17.63-0.27,26.44-0.39
			c4.1-0.06,8.19-0.11,12.29-0.17"/>
	</g>
	<g id="POLYLINE_1373_">
		<path class="st28" d="M657.97,209.58c9.57,0.13,19.14,0.27,28.71,0.4c7.93,0.11,15.83,0.39,23.75,0.72
			c4.41,0.18,8.81,0.57,13.21,0.86"/>
	</g>
	<g id="POLYLINE_1372_">
		<path class="st28" d="M723.64,211.56c2.87,0.28,5.77,0.93,8.09,2.74c2.08,1.61,3.33,3.97,3.88,6.51c0.37,1.71,0.43,3.45,0.39,5.19
			"/>
	</g>
	<g id="POLYLINE_1371_">
		<path class="st28" d="M580.14,232.46c0.11,2.18,0.46,4.38,1.59,6.28c1.22,2.07,3.24,3.39,5.54,4c1.13,0.3,2.29,0.42,3.46,0.48"/>
	</g>
	<g id="POLYLINE_1370_">
		<line class="st28" x1="590.72" y1="243.24" x2="657.97" y2="244.7"/>
	</g>
	<g id="POLYLINE_1369_">
		<line class="st28" x1="657.97" y1="244.7" x2="725.21" y2="243.24"/>
	</g>
	<g id="POLYLINE_1368_">
		<path class="st28" d="M725.21,243.24c2.19-0.12,4.4-0.5,6.29-1.69c2-1.27,3.25-3.31,3.83-5.57c0.29-1.15,0.41-2.33,0.47-3.51"/>
	</g>
	<g id="POLYLINE_1367_">
		<path class="st28" d="M730.95,260.59c1.73,0,3.13,0.81,3.06,2.71"/>
	</g>
	<g id="POLYLINE_1366_">
		<path class="st28" d="M734.01,263.38c-0.34,5.18-0.68,10.35-1.15,15.51c-0.48,5.4-1.09,10.75-1.87,16.12
			c-0.61,4.17-1.49,8.31-2.29,12.45c-1.36,7.01-2.71,14.02-4.07,21.03c-0.81,4.21-1.51,8.45-2.16,12.69
			c-0.8,5.3-1.46,10.62-2.08,15.94c-0.6,5.19-1,10.39-1.4,15.6c-0.4,5.21-0.59,10.44-0.79,15.67c-0.18,4.72-0.31,9.46-0.27,14.19
			c0.06,5.76,0.15,11.5,0.35,17.26c0.04,1.07,0.07,2.14,0.11,3.21"/>
	</g>
	<g id="POLYLINE_1365_">
		<line class="st28" x1="718.41" y1="423.04" x2="657.97" y2="423.04"/>
	</g>
	<g id="POLYLINE_1364_">
		<line class="st28" x1="657.97" y1="423.04" x2="597.53" y2="423.04"/>
	</g>
	<g id="POLYLINE_1363_">
		<path class="st28" d="M597.53,423.04c0.18-5.26,0.36-10.51,0.42-15.77c0.05-5.26,0.04-10.52-0.1-15.77
			c-0.14-5.43-0.43-10.85-0.75-16.27c-0.31-5.26-0.8-10.51-1.31-15.76c-0.5-5.16-1.21-10.29-1.93-15.42c-0.6-4.34-1.23-8.7-2.06-13
			c-1.18-6.09-2.35-12.17-3.53-18.26c-0.92-4.77-1.91-9.53-2.74-14.31c-0.84-4.86-1.57-9.77-2.01-14.69
			c-0.51-5.74-1-11.46-1.37-17.2c-0.07-1.07-0.14-2.14-0.21-3.21"/>
	</g>
	<g id="POLYLINE_1362_">
		<path class="st28" d="M581.93,263.38c-0.09-1.93,1.27-2.79,3.06-2.79"/>
	</g>
	<g id="POLYLINE_1361_">
		<path class="st28" d="M579.52,137.23c-1.4,0-2.76-0.57-2.79-2.18"/>
	</g>
	<g id="POLYLINE_1360_">
		<line class="st28" x1="576.73" y1="134.98" x2="576.73" y2="124.15"/>
	</g>
	<g id="POLYLINE_1359_">
		<path class="st28" d="M576.73,124.15c0.05-4.65,7.03-5.26,10.4-5.51c1.49-0.11,2.97-0.14,4.46-0.16"/>
	</g>
	<g id="POLYLINE_1358_">
		<line class="st28" x1="591.59" y1="118.49" x2="657.97" y2="118.49"/>
	</g>
	<g id="POLYLINE_1357_">
		<line class="st28" x1="657.97" y1="118.49" x2="724.35" y2="118.49"/>
	</g>
	<g id="POLYLINE_1356_">
		<path class="st28" d="M724.35,118.49c2.57,0.03,5.15,0.1,7.69,0.54c2.11,0.36,4.6,0.91,6.12,2.53c0.67,0.71,1.05,1.62,1.05,2.61"
			/>
	</g>
	<g id="POLYLINE_1355_">
		<line class="st28" x1="739.21" y1="124.15" x2="739.21" y2="134.98"/>
	</g>
	<g id="POLYLINE_1354_">
		<path class="st28" d="M739.21,134.98c-0.02,1.64-1.35,2.25-2.79,2.25"/>
	</g>
	<g id="POLYLINE_1353_">
		<line class="st28" x1="668.09" y1="118.49" x2="657.97" y2="118.49"/>
	</g>
	<g id="POLYLINE_1352_">
		<line class="st28" x1="657.97" y1="118.49" x2="647.85" y2="118.49"/>
	</g>
	<g id="POLYLINE_1351_">
		<line class="st28" x1="647.85" y1="118.49" x2="647.85" y2="116.54"/>
	</g>
	<g id="POLYLINE_1350_">
		<line class="st28" x1="647.85" y1="116.54" x2="657.97" y2="116.54"/>
	</g>
	<g id="POLYLINE_1349_">
		<line class="st28" x1="657.97" y1="116.54" x2="651.13" y2="116.54"/>
	</g>
	<g id="POLYLINE_1348_">
		<line class="st28" x1="651.13" y1="116.54" x2="651.13" y2="114.6"/>
	</g>
	<g id="POLYLINE_1347_">
		<line class="st28" x1="651.13" y1="114.6" x2="657.97" y2="114.6"/>
	</g>
	<g id="POLYLINE_1346_">
		<line class="st28" x1="657.97" y1="114.6" x2="664.81" y2="114.6"/>
	</g>
	<g id="POLYLINE_1345_">
		<line class="st28" x1="664.81" y1="114.6" x2="664.81" y2="116.54"/>
	</g>
	<g id="POLYLINE_1344_">
		<line class="st28" x1="664.81" y1="116.54" x2="657.97" y2="116.54"/>
	</g>
	<g id="POLYLINE_1343_">
		<line class="st28" x1="657.97" y1="116.54" x2="668.09" y2="116.54"/>
	</g>
	<g id="POLYLINE_1342_">
		<line class="st28" x1="668.09" y1="116.54" x2="668.09" y2="118.49"/>
	</g>
	<g id="POLYLINE_1341_">
		<path class="st28" d="M130.13,137.1c-1.29,0.12-2.06,0.98-2.08,2.27"/>
	</g>
	<g id="POLYLINE_1340_">
		<path class="st28" d="M128.06,139.38c-0.03,4.53-0.06,9.04,0.04,13.56c0.17,7.73,0.33,15.47,0.5,23.2
			c0.23,10.81,0.46,21.62,0.69,32.44c0.21,9.87,0.42,19.75,0.63,29.62c0.11,4.92,0.21,9.83,0.32,14.75c0,0.07,0,0.14,0,0.21"/>
	</g>
	<g id="POLYLINE_1339_">
		<path class="st28" d="M130.24,253.15c0.03,1.54,1.12,2.31,2.59,2.28"/>
	</g>
</g>
<g id="AG-OUTLINE">
	<g id="POLYLINE_749_">
		<line class="st30" x1="137.03" y1="423.04" x2="357.52" y2="423.04"/>
	</g>
	<g id="POLYLINE_748_">
		<path class="st30" d="M357.52,423.04c-0.14-5.24-0.13-10.45,0.06-15.68c0.19-4.9,0.73-9.8,1.41-14.65
			c0.66-4.79,1.54-9.57,2.66-14.28c1.11-4.66,2.39-9.29,3.93-13.83c1.6-4.74,3.39-9.4,5.41-13.98c2.04-4.62,4.31-9.13,6.77-13.54
			c2.03-3.65,4.26-7.19,6.54-10.69c3.57-5.51,7.14-11.02,10.71-16.53c2.34-3.61,4.48-7.37,6.44-11.2c2.24-4.36,4.19-8.87,5.93-13.45
			c1.83-4.81,3.42-9.7,4.88-14.63c0.61-2.05,1.37-4.16,1.68-6.27c0.26-1.76-0.43-3.28-2.32-3.63c-1.56-0.29-3.32-0.1-4.89-0.1
			c-4.09,0-8.19,0-12.28,0c-6.09,0-12.18,0-18.27,0c-7.27,0-14.53,0-21.8,0c-7.54,0-15.08,0-22.63,0c-6.91,0-13.83,0-20.74,0
			c-5.47,0-10.95,0-16.42,0c-3.13,0-6.25,0-9.38,0c-0.41,0-0.82,0-1.22,0"/>
	</g>
	<g id="POLYLINE_747_">
		<path class="st30" d="M283.99,260.59c1.61-0.19,1.86-2.28,0.47-2.95c-0.37-0.18-0.8-0.28-1.19-0.41
			c-2.72-0.95-5.44-1.89-8.17-2.84c-9.81-3.41-19.61-6.82-29.42-10.22c-9.48-3.29-18.96-6.59-28.43-9.88
			c-2.31-0.8-4.62-1.6-6.93-2.41c-0.73-0.25-1.48-0.45-2.12,0.19c-0.55,0.56-0.48,1.45-0.54,2.18c-0.11,1.28-0.22,2.56-0.34,3.83
			c-0.3,3.48-0.45,7-0.5,10.49c-0.03,2.08-0.04,4.16-0.02,6.25c0.01,0.84,0.03,1.68,0.05,2.52c0.02,0.73-0.14,1.74,0.21,2.42
			c0.24,0.47,0.71,0.79,1.23,0.84"/>
	</g>
	<g id="POLYLINE_746_">
		<path class="st30" d="M208.3,260.59c-4.16,0-8.32,0-12.47,0c-2.31,0-5.16,0.06-6.71-1.98c-0.69-0.91-0.93-2.05-0.93-3.17"/>
	</g>
	<g id="POLYLINE_745_">
		<path class="st30" d="M188.19,255.43c2.49-0.02,3.12-1.97,3.19-4.09c0.12-3.89,0.25-7.78,0.37-11.67
			c0.35-10.87,0.7-21.75,1.05-32.62c0.15-4.65,0.2-9.3,0.27-13.96c0.17-11.43,0.34-22.87,0.52-34.3c0.07-4.76,0.14-9.53,0.21-14.29
			c0.03-1.84,0.29-3.83,0.05-5.67c-0.13-1.01-0.75-1.68-1.8-1.74"/>
	</g>
	<g id="POLYLINE_744_">
		<path class="st30" d="M192.05,137.11c1.23-0.02,1.59-0.92,1.63-2c0.06-1.48,0.09-2.97,0.09-4.45c0-1.36-0.03-2.72-0.1-4.08
			c-0.07-1.33-0.04-2.82-0.35-4.11c-0.5-2.08-3.34-2.81-5.11-3.2c-2.5-0.55-5.08-0.72-7.63-0.76c-3.23-0.06-6.46-0.01-9.68-0.01"/>
	</g>
	<g id="POLYLINE_743_">
		<path class="st30" d="M170.9,118.49c0-0.48,0-0.96,0-1.44c0-0.54,0.08-0.42-0.34-0.5c-0.91-0.18-2.02,0-2.94,0"/>
	</g>
	<g id="POLYLINE_742_">
		<path class="st30" d="M167.62,116.54c0-0.39,0.21-1.54,0-1.85c-0.12-0.17-0.52-0.09-0.79-0.09c-1.56,0-3.11,0-4.67,0
			c-2.31,0-4.61,0-6.92,0c-0.19,0-1.16-0.14-1.3,0c-0.22,0.21,0,1.61,0,1.94"/>
	</g>
	<g id="POLYLINE_741_">
		<path class="st30" d="M153.94,116.54c-0.89,0-2.09-0.23-2.94,0c-0.42,0.11-0.3-0.1-0.34,0.42c-0.04,0.5,0,1.02,0,1.52"/>
	</g>
	<g id="POLYLINE_740_">
		<path class="st30" d="M150.66,118.49c-3.35,0-6.69,0-10.04,0c-2.41,0-4.85-0.06-7.22,0.49c-1.81,0.42-3.73,1.25-4.57,3.02
			c-0.47,0.99-0.44,2.06-0.49,3.14c-0.07,1.4-0.11,2.79-0.14,4.2c-0.04,1.74-0.09,3.48-0.08,5.23c0.01,1.51,0.29,2.52,2.02,2.55"/>
	</g>
	<g id="POLYLINE_739_">
		<path class="st30" d="M130.13,137.1c-2.05,0.19-2.07,1.91-2.08,3.51c-0.02,2.5-0.04,5-0.05,7.51c0,1.17,0.04,2.35,0.07,3.52
			c0.17,7.93,0.34,15.87,0.51,23.8c0.25,11.58,0.5,23.17,0.74,34.75c0.22,10.33,0.44,20.66,0.66,30.99c0.07,3.08,0.13,6.15,0.2,9.23
			c0.02,1.15-0.26,3.27,0.5,4.25c0.51,0.65,1.37,0.79,2.14,0.78"/>
	</g>
	<g id="POLYLINE_738_">
		<path class="st30" d="M132.83,255.43c-2.4,0.08-2.69,1.94-2.69,3.82c0,3.72,0,7.44,0,11.16c0,2.61-0.03,5.22,0,7.83
			c0.02,1.76,0.5,3.54,1.98,4.65c1.72,1.28,4.26,0.83,6.24,0.83"/>
	</g>
	<g id="POLYLINE_737_">
		<path class="st30" d="M138.35,283.73c1.63,4.47,3.24,8.95,4.8,13.44c1.42,4.1,2.91,8.25,3.66,12.54c0.74,4.25,0.52,8.61,0.31,12.9
			c-0.24,5.09-0.64,10.17-1.01,15.26c-0.26,3.5-0.6,7-0.93,10.49c-0.59,6.28-1.18,12.56-1.77,18.83c-0.2,2.09-0.42,4.17-0.66,6.26
			c-0.63,5.44-1.25,10.87-1.88,16.31c-0.77,6.71-1.55,13.41-2.32,20.12c-0.48,4.18-0.97,8.37-1.45,12.55
			c-0.02,0.21-0.05,0.41-0.07,0.62"/>
	</g>
	<g id="POLYLINE_736_">
		<line class="st30" x1="597.53" y1="423.04" x2="718.41" y2="423.04"/>
	</g>
	<g id="POLYLINE_735_">
		<path class="st30" d="M718.41,423.04c-0.19-5.62-0.37-11.23-0.43-16.86c-0.05-5.06-0.06-10.14,0.13-15.19
			c0.23-5.85,0.44-11.69,0.83-17.53c0.35-5.16,0.77-10.33,1.35-15.46c0.64-5.61,1.33-11.21,2.18-16.8
			c0.67-4.44,1.42-8.87,2.27-13.29c1.42-7.34,2.84-14.68,4.26-22.02c0.87-4.49,1.71-8.97,2.37-13.5c0.83-5.7,1.3-11.42,1.82-17.16
			c0.22-2.43,0.36-4.87,0.52-7.31c0.1-1.47,0.23-2.95,0.29-4.43c0.04-0.81-0.05-1.63-0.68-2.22c-0.63-0.58-1.56-0.7-2.37-0.7"/>
	</g>
	<g id="POLYLINE_734_">
		<path class="st30" d="M730.95,260.59c1.53,0,3.82,0.46,3.98-1.64c0.17-2.26,0.15-4.55,0.22-6.81c0.21-6.39,0.42-12.77,0.63-19.16
			c0.08-2.33,0.15-4.66,0.23-6.98"/>
	</g>
	<g id="POLYLINE_733_">
		<line class="st30" x1="736.01" y1="225.99" x2="736.03" y2="225.17"/>
	</g>
	<g id="POLYLINE_732_">
		<path class="st30" d="M736.03,225.17c0.1-3.17,0.21-6.34,0.31-9.52c0.25-7.47,0.49-14.95,0.74-22.42
			c0.29-8.74,0.57-17.48,0.86-26.21c0.23-6.86,0.45-13.72,0.68-20.58c0.06-1.78,0.12-3.56,0.18-5.34c0.04-1.12,0.17-2.46-0.75-3.29
			c-0.42-0.38-0.99-0.54-1.55-0.57"/>
	</g>
	<g id="POLYLINE_731_">
		<path class="st30" d="M736.42,137.23c1.4,0,2.76-0.57,2.79-2.18"/>
	</g>
	<g id="POLYLINE_730_">
		<line class="st30" x1="739.21" y1="134.98" x2="739.21" y2="124.15"/>
	</g>
	<g id="POLYLINE_729_">
		<path class="st30" d="M739.21,124.15c-0.05-4.65-7.03-5.26-10.4-5.51c-1.49-0.11-2.97-0.14-4.46-0.16"/>
	</g>
	<g id="POLYLINE_728_">
		<line class="st30" x1="724.35" y1="118.49" x2="668.09" y2="118.49"/>
	</g>
	<g id="POLYLINE_727_">
		<path class="st30" d="M668.09,118.49c0-0.48,0-0.96,0-1.44c0-0.54,0.08-0.42-0.34-0.5c-0.91-0.18-2.02,0-2.94,0"/>
	</g>
	<g id="POLYLINE_726_">
		<path class="st30" d="M664.81,116.54c0-0.33,0.22-1.73,0-1.94c-0.14-0.14-1.2,0-1.38,0c-1.69,0-3.38,0-5.07,0
			c-2.41,0-4.82,0-7.22,0c0,0,0,1.78,0,1.94"/>
	</g>
	<g id="POLYLINE_725_">
		<path class="st30" d="M651.13,116.54c-0.89,0-2.09-0.23-2.94,0c-0.42,0.11-0.3-0.1-0.34,0.42c-0.04,0.5,0,1.02,0,1.52"/>
	</g>
	<g id="POLYLINE_724_">
		<line class="st30" x1="647.85" y1="118.49" x2="591.59" y2="118.49"/>
	</g>
	<g id="POLYLINE_220_">
		<path class="st30" d="M591.59,118.49c-2.57,0.03-5.15,0.1-7.69,0.54c-2.11,0.36-4.6,0.91-6.12,2.53
			c-0.67,0.71-1.05,1.62-1.05,2.61"/>
	</g>
	<g id="POLYLINE_219_">
		<line class="st30" x1="576.73" y1="124.15" x2="576.73" y2="134.98"/>
	</g>
	<g id="POLYLINE_218_">
		<path class="st30" d="M576.73,134.98c0.02,1.64,1.35,2.25,2.79,2.25"/>
	</g>
	<g id="POLYLINE_217_">
		<path class="st30" d="M579.52,137.23c-1.91,0.08-2.44,1.62-2.4,3.26c0.04,1.41,0.09,2.82,0.14,4.23
			c0.21,6.42,0.42,12.84,0.63,19.25c0.29,8.68,0.57,17.35,0.86,26.03c0.26,7.79,0.51,15.58,0.77,23.38
			c0.13,3.87,0.25,7.75,0.38,11.62c0,0.06,0,0.11,0.01,0.17"/>
	</g>
	<g id="POLYLINE_216_">
		<line class="st30" x1="579.91" y1="225.17" x2="579.93" y2="225.99"/>
	</g>
	<g id="POLYLINE_215_">
		<path class="st30" d="M579.93,225.99c0.16,4.95,0.33,9.91,0.49,14.86c0.19,5.93,0.38,11.85,0.58,17.78
			c0.08,2.34,2.15,1.95,3.99,1.95"/>
	</g>
	<g id="POLYLINE_214_">
		<path class="st30" d="M584.99,260.59c-1.88,0-3.14,0.93-3.05,2.9c0.14,3.24,0.42,6.47,0.64,9.71c0.35,5.3,0.91,10.59,1.54,15.87
			c0.51,4.31,1.23,8.6,2.05,12.87c1.38,7.12,2.75,14.23,4.13,21.35c0.92,4.75,1.8,9.49,2.57,14.26c0.83,5.09,1.58,10.19,2.17,15.31
			c0.65,5.6,1.22,11.21,1.66,16.84c0.42,5.42,0.72,10.83,0.93,16.26c0.21,5.38,0.36,10.76,0.37,16.15c0,5.86-0.15,11.7-0.35,17.55
			c-0.04,1.13-0.08,2.26-0.12,3.4"/>
	</g>
	<g id="POLYLINE_213_">
		<path class="st30" d="M289.43,256.59c3.3,1.12,6.53,1.81,10.03,1.85c1.54,0.02,3.07,0.03,4.61,0.03c6.64,0,13.28,0,19.92,0
			c10.57,0,21.15,0,31.72,0c10.89,0,21.79,0,32.68,0c7.37,0,14.74,0,22.11,0c1.22,0,2.49,0.09,3.71,0c1.11-0.08,1.56-0.79,1.77-1.8
			c0.43-2.05,0.77-4.1,1.13-6.16c0.29-1.67,0.6-3.35,0.8-5.04c0.16-1.34,0.59-3.39,0.04-4.67c-0.51-1.19-1.92-1.07-2.99-1.17
			c-2.56-0.25-5.12-0.5-7.69-0.75c-5.94-0.58-11.9-0.74-17.86-0.91c-10.12-0.28-20.24-0.56-30.36-0.84
			c-6.74-0.19-13.47-0.76-20.19-1.2c-6.73-0.44-13.46-0.89-20.16-1.68c-7.81-0.92-15.58-1.91-23.32-3.33
			c-7.78-1.42-15.47-3.21-23.17-5c-6.47-1.51-12.95-3.1-19.34-4.93c-8.03-2.31-16-4.7-23.94-7.29c-3.66-1.19-7.27-2.57-10.89-3.87
			c-1.06-0.38-2.06-0.67-2.85,0.38c-1.07,1.42-1.93,3.1-2.76,4.67c-1.67,3.16-2.92,6.46-3.54,9.99c-0.22,1.27-0.83,3.14,0.6,3.91
			c0.33,0.18,0.72,0.27,1.07,0.39c6.52,2.27,13.05,4.54,19.57,6.8c10.45,3.63,20.9,7.26,31.35,10.89c8.1,2.82,16.21,5.63,24.31,8.45
			C286.99,255.75,288.21,256.17,289.43,256.59z"/>
	</g>
	<g id="POLYLINE_212_">
		<path class="st30" d="M1282.97,410.95c4.3-0.38,8.62-0.72,12.84-1.65c4.18-0.92,8.21-2.39,11.95-4.46
			c3.79-2.1,7.28-4.71,10.49-7.61c3.23-2.91,6.26-6.08,9.05-9.41c2.82-3.37,5.48-6.87,7.88-10.55c2.48-3.79,4.71-7.7,6.79-11.72
			c2.01-3.88,3.73-7.9,5.33-11.96c1.57-3.99,2.95-8.06,4.17-12.17c1.24-4.19,2.35-8.43,3.24-12.71c0.94-4.45,1.78-8.93,2.44-13.43
			c0.66-4.47,1.15-8.96,1.57-13.46c0.4-4.31,0.66-8.64,0.84-12.96c0.16-4.06,0.22-8.12,0.23-12.18c0.01-5.4,0-10.81,0-16.21
			c0-1.64,0-3.28,0-4.91c0-4.3,0-8.6,0-12.9c0-6.16,0-12.32,0-18.49c0-6.65,0-13.3,0-19.96c0-5.77,0-11.54,0-17.3
			c0-3.51,0-7.02,0-10.53c0-0.48,0-0.96,0-1.44"/>
	</g>
	<g id="POLYLINE_211_">
		<path class="st30" d="M1359.79,174.93c2.78-2.34,3.93-5.81,3.94-9.35c0.01-4.21,0-8.42,0-12.62c0-4.74,0.02-9.49,0-14.23
			c-0.01-3.26-0.37-6.75-2.21-9.54c-2.08-3.17-5.71-4.32-9.35-4.33"/>
	</g>
	<g id="POLYLINE_209_">
		<line class="st30" x1="1352.16" y1="124.85" x2="1282.97" y2="124.85"/>
	</g>
	<g id="POLYLINE_208_">
		<line class="st30" x1="1282.97" y1="124.85" x2="1213.77" y2="124.85"/>
	</g>
	<g id="POLYLINE_207_">
		<path class="st30" d="M1213.77,124.85c-3.22,0.01-6.52,0.87-8.67,3.42c-2.34,2.76-2.86,6.6-2.89,10.1
			c-0.08,8.96-0.01,17.93,0,26.9c0,3.66,1.03,7.22,3.94,9.66"/>
	</g>
	<g id="POLYLINE_206_">
		<path class="st30" d="M1206.15,174.93c0,1.62,0,3.24,0,4.86c0,4.23,0,8.46,0,12.7c0,5.91,0,11.82,0,17.73c0,6.65,0,13.3,0,19.95
			c0,6.46,0,12.91,0,19.37c0,5.3,0,10.61,0,15.91c0,3.27,0,6.54,0,9.81c0,2.53,0.02,5.07,0.06,7.6c0.07,4.11,0.21,8.24,0.5,12.35
			c0.34,4.75,0.76,9.49,1.3,14.22c0.47,4.16,1.11,8.31,1.87,12.43c0.8,4.38,1.71,8.75,2.82,13.06c1.15,4.48,2.48,8.88,3.95,13.26
			c1.33,3.95,2.87,7.85,4.6,11.64c1.84,4.03,3.8,8,6.04,11.83c2.2,3.76,4.57,7.42,7.17,10.91c2.68,3.6,5.6,7.01,8.7,10.27
			c2.98,3.13,6.21,6.04,9.69,8.59c3.49,2.56,7.31,4.67,11.37,6.17c3.98,1.46,8.16,2.26,12.36,2.75c2.13,0.25,4.26,0.42,6.4,0.61"/>
	</g>
	<g id="POLYLINE_205_">
		<path class="st30" d="M991.3,410.95c4.3-0.38,8.62-0.72,12.84-1.65c4.18-0.92,8.21-2.39,11.95-4.46c3.79-2.1,7.28-4.71,10.49-7.61
			c3.23-2.91,6.26-6.08,9.05-9.41c2.82-3.37,5.48-6.87,7.88-10.55c2.46-3.77,4.68-7.66,6.76-11.66c2.01-3.87,3.73-7.89,5.33-11.94
			c1.59-4.01,2.97-8.11,4.2-12.25c1.24-4.17,2.33-8.4,3.24-12.66c0.95-4.47,1.78-8.96,2.45-13.48c0.66-4.44,1.15-8.9,1.56-13.37
			c0.4-4.34,0.67-8.7,0.84-13.05c0.16-3.97,0.21-7.94,0.23-11.9c0.01-1.93,0-3.87,0-5.8c0-4.45,0-8.9,0-13.35c0-6,0-11.99,0-17.99
			c0-6.67,0-13.35,0-20.02c0-6.39,0-12.77,0-19.16c0-5.16,0-10.32,0-15.49c0-3,0-6.01,0-9.01c0-0.4,0-0.8,0-1.2"/>
	</g>
	<g id="POLYLINE_156_">
		<path class="st30" d="M1068.13,174.93c2.78-2.34,3.93-5.81,3.94-9.35c0.01-4.21,0-8.42,0-12.62c0-4.74,0.02-9.49,0-14.23
			c-0.01-3.26-0.37-6.75-2.21-9.54c-2.08-3.17-5.71-4.32-9.35-4.33"/>
	</g>
	<g id="POLYLINE_96_">
		<line class="st30" x1="1060.5" y1="124.85" x2="991.3" y2="124.85"/>
	</g>
	<g id="POLYLINE_95_">
		<line class="st30" x1="991.3" y1="124.85" x2="922.11" y2="124.85"/>
	</g>
	<g id="POLYLINE_52_">
		<path class="st30" d="M922.11,124.85c-3.22,0.01-6.52,0.87-8.67,3.42c-2.34,2.76-2.86,6.6-2.89,10.1c-0.08,8.96-0.01,17.93,0,26.9
			c0,3.66,1.03,7.22,3.94,9.66"/>
	</g>
	<g id="POLYLINE_5_">
		<path class="st30" d="M914.48,174.93c0,1.62,0,3.24,0,4.86c0,4.23,0,8.46,0,12.7c0,5.91,0,11.82,0,17.73c0,6.65,0,13.3,0,19.95
			c0,6.46,0,12.91,0,19.37c0,5.3,0,10.61,0,15.91c0,3.27,0,6.54,0,9.81c0,2.53,0.02,5.07,0.06,7.6c0.07,4.11,0.21,8.24,0.5,12.35
			c0.34,4.75,0.76,9.49,1.3,14.22c0.47,4.16,1.11,8.31,1.87,12.43c0.8,4.38,1.71,8.75,2.82,13.06c1.15,4.48,2.48,8.88,3.95,13.26
			c1.33,3.95,2.87,7.85,4.6,11.64c1.84,4.03,3.8,8,6.04,11.83c2.2,3.76,4.57,7.42,7.17,10.91c2.68,3.6,5.6,7.01,8.7,10.27
			c2.98,3.13,6.21,6.04,9.69,8.59c3.49,2.56,7.31,4.67,11.37,6.17c3.98,1.46,8.16,2.26,12.36,2.75c2.13,0.25,4.26,0.42,6.4,0.61"/>
	</g>
</g>
</svg>
