<?xml version="1.0" encoding="utf-8"?>
<!-- Generator: Adobe Illustrator 23.0.4, SVG Export Plug-In . SVG Version: 6.00 Build 0)  -->
<!DOCTYPE svg PUBLIC "-//W3C//DTD SVG 1.1//EN" "http://www.w3.org/Graphics/SVG/1.1/DTD/svg11.dtd" [
	<!ENTITY ns_flows "http://ns.adobe.com/Flows/1.0/">
	<!ENTITY ns_extend "http://ns.adobe.com/Extensibility/1.0/">
	<!ENTITY ns_ai "http://ns.adobe.com/AdobeIllustrator/10.0/">
	<!ENTITY ns_graphs "http://ns.adobe.com/Graphs/1.0/">
	<!ENTITY ns_vars "http://ns.adobe.com/Variables/1.0/">
	<!ENTITY ns_imrep "http://ns.adobe.com/ImageReplacement/1.0/">
	<!ENTITY ns_sfw "http://ns.adobe.com/SaveForWeb/1.0/">
	<!ENTITY ns_custom "http://ns.adobe.com/GenericCustomNamespace/1.0/">
	<!ENTITY ns_adobe_xpath "http://ns.adobe.com/XPath/1.0/">
]>
<svg version="1.1" xmlns:x="&ns_extend;" xmlns:i="&ns_ai;" xmlns:graph="&ns_graphs;"
	 xmlns="http://www.w3.org/2000/svg" xmlns:xlink="http://www.w3.org/1999/xlink" xmlns:a="http://ns.adobe.com/AdobeSVGViewerExtensions/3.0/"
	 x="0px" y="0px" viewBox="0 0 1500 525" enable-background="new 0 0 1500 525" xml:space="preserve">
<metadata>
	<sfw  xmlns="&ns_sfw;">
		<slices></slices>
		<sliceSourceBounds  bottomLeftOrigin="true" height="7428.479" width="6991.828" x="-3798.828" y="275"></sliceSourceBounds>
	</sfw>
</metadata>
<g id="FILL-BACKGROUND" display="none">
	<rect display="inline" fill="#FFFFFF" width="1500" height="525"/>
</g>
<g id="N-TEXT" display="none">
	<g display="inline">
		<g>
			<path fill="#1ABC9C" d="M302.511,60.059c-0.072-0.078-0.108-0.177-0.108-0.297V49.609l-3.024,2.322
				c-0.084,0.072-0.174,0.108-0.27,0.108c-0.108,0-0.21-0.061-0.306-0.181l-0.432-0.558c-0.06-0.084-0.09-0.168-0.09-0.252
				c0-0.132,0.06-0.24,0.18-0.324l3.906-3.023c0.132-0.084,0.288-0.126,0.468-0.126h0.846c0.12,0,0.219,0.039,0.297,0.116
				c0.078,0.078,0.117,0.178,0.117,0.298v11.771c0,0.12-0.039,0.219-0.117,0.297s-0.177,0.117-0.297,0.117h-0.882
				C302.679,60.176,302.583,60.137,302.511,60.059z"/>
			<path fill="#1ABC9C" d="M307.776,58.997c-0.714-0.906-1.095-2.091-1.143-3.556l-0.018-1.548l0.018-1.602
				c0.036-1.452,0.417-2.631,1.143-3.537s1.857-1.359,3.393-1.359c1.548,0,2.685,0.453,3.411,1.359
				c0.726,0.906,1.107,2.085,1.143,3.537c0.012,0.336,0.018,0.87,0.018,1.602c0,0.708-0.006,1.225-0.018,1.548
				c-0.048,1.465-0.429,2.649-1.143,3.556c-0.714,0.906-1.851,1.358-3.411,1.358C309.621,60.355,308.49,59.903,307.776,58.997z
				 M313.257,57.943c0.468-0.611,0.714-1.476,0.738-2.592c0.012-0.348,0.018-0.846,0.018-1.494c0-0.659-0.006-1.151-0.018-1.476
				c-0.024-1.104-0.273-1.965-0.747-2.583c-0.474-0.618-1.167-0.927-2.079-0.927c-0.912,0-1.602,0.309-2.07,0.927
				c-0.468,0.618-0.714,1.479-0.738,2.583l-0.018,1.476l0.018,1.494c0.024,1.116,0.27,1.98,0.738,2.592
				c0.468,0.612,1.158,0.918,2.07,0.918C312.093,58.861,312.789,58.556,313.257,57.943z"/>
			<path fill="#1ABC9C" d="M317.973,50.717c-0.048-0.065-0.066-0.159-0.054-0.279l0.396-2.52c0.048-0.348,0.216-0.522,0.504-0.522
				h1.152c0.083,0,0.153,0.03,0.207,0.09c0.054,0.061,0.081,0.133,0.081,0.217c0,0.12-0.018,0.216-0.054,0.288l-0.936,2.43
				c-0.06,0.132-0.126,0.231-0.198,0.297c-0.072,0.066-0.18,0.099-0.324,0.099h-0.558C318.092,50.815,318.021,50.783,317.973,50.717
				z"/>
			<path fill="#1ABC9C" d="M326.846,63.803c-0.072-0.078-0.108-0.177-0.108-0.297V44.462c0-0.12,0.036-0.219,0.108-0.297
				s0.168-0.117,0.288-0.117h0.666c0.12,0,0.219,0.039,0.297,0.117s0.117,0.177,0.117,0.297v19.044c0,0.12-0.039,0.219-0.117,0.297
				s-0.177,0.117-0.297,0.117h-0.666C327.014,63.92,326.918,63.881,326.846,63.803z"/>
			<path fill="#1ABC9C" d="M336.872,59.896c-0.684-0.306-1.203-0.704-1.557-1.196s-0.543-1.002-0.567-1.53
				c0-0.108,0.036-0.195,0.108-0.261c0.072-0.066,0.162-0.1,0.27-0.1h0.81c0.132,0,0.24,0.027,0.324,0.081
				c0.083,0.054,0.15,0.159,0.198,0.315c0.156,0.611,0.495,1.044,1.017,1.296s1.137,0.378,1.845,0.378
				c0.864,0,1.551-0.207,2.061-0.621c0.51-0.414,0.765-1.005,0.765-1.773c0-1.464-0.894-2.195-2.682-2.195h-1.692
				c-0.12,0-0.219-0.039-0.297-0.117s-0.117-0.177-0.117-0.297v-0.468c0-0.181,0.066-0.336,0.198-0.469l3.51-3.888h-5.328
				c-0.12,0-0.219-0.036-0.297-0.108c-0.078-0.071-0.117-0.168-0.117-0.287v-0.648c0-0.132,0.039-0.237,0.117-0.315
				c0.078-0.077,0.177-0.116,0.297-0.116h7.128c0.132,0,0.237,0.039,0.315,0.116c0.078,0.078,0.117,0.184,0.117,0.315v0.594
				c0,0.133-0.061,0.271-0.18,0.414l-3.51,3.942h0.288c1.224,0.036,2.193,0.354,2.907,0.954c0.714,0.6,1.071,1.476,1.071,2.628
				c0,0.792-0.195,1.473-0.585,2.043c-0.39,0.57-0.933,1.008-1.629,1.313c-0.696,0.307-1.482,0.459-2.358,0.459
				C338.366,60.355,337.556,60.203,336.872,59.896z"/>
			<path fill="#1ABC9C" d="M350.632,60.059c-0.078-0.078-0.117-0.177-0.117-0.297v-8.532c0-0.119,0.039-0.219,0.117-0.297
				s0.177-0.117,0.297-0.117h0.756c0.12,0,0.216,0.039,0.288,0.117c0.072,0.078,0.108,0.178,0.108,0.297v0.612
				c0.648-0.804,1.524-1.206,2.628-1.206c1.32,0,2.256,0.552,2.808,1.656c0.288-0.504,0.699-0.906,1.233-1.206
				c0.534-0.3,1.131-0.45,1.791-0.45c0.984,0,1.788,0.336,2.412,1.008c0.624,0.673,0.936,1.645,0.936,2.916v5.202
				c0,0.12-0.039,0.219-0.117,0.297s-0.177,0.117-0.297,0.117h-0.774c-0.12,0-0.219-0.039-0.297-0.117s-0.117-0.177-0.117-0.297
				v-5.04c0-0.96-0.198-1.646-0.594-2.061s-0.918-0.621-1.566-0.621c-0.576,0-1.071,0.213-1.485,0.639s-0.621,1.107-0.621,2.043
				v5.04c0,0.12-0.039,0.219-0.117,0.297s-0.177,0.117-0.297,0.117h-0.792c-0.12,0-0.219-0.039-0.297-0.117
				c-0.078-0.078-0.117-0.177-0.117-0.297v-5.04c0-0.947-0.207-1.632-0.621-2.052c-0.414-0.42-0.927-0.63-1.539-0.63
				c-0.576,0-1.071,0.21-1.485,0.63s-0.621,1.098-0.621,2.034v5.058c0,0.12-0.04,0.219-0.117,0.297
				c-0.078,0.078-0.177,0.117-0.297,0.117h-0.792C350.81,60.176,350.71,60.137,350.632,60.059z"/>
		</g>
	</g>
	<g display="inline">
		<g>
			<g>
				<g id="LINE_9_">
					
						<line fill="none" stroke="#1ABC9C" stroke-width="2" stroke-linecap="round" stroke-linejoin="round" stroke-miterlimit="10" x1="1376.348" y1="112.943" x2="1376.378" y2="86.493"/>
				</g>
				<g id="POLYLINE_393_">
					
						<polyline fill="none" stroke="#1ABC9C" stroke-width="2" stroke-linecap="round" stroke-linejoin="round" stroke-miterlimit="10" points="
						1369.74,93.111 1376.378,86.493 1382.995,93.133 					"/>
				</g>
			</g>
			<g>
				<g id="POLYLINE_392_">
					
						<line fill="none" stroke="#1ABC9C" stroke-width="2" stroke-linecap="round" stroke-linejoin="round" stroke-miterlimit="10" x1="1376.211" y1="201.972" x2="1376.244" y2="175.943"/>
				</g>
				<g id="POLYLINE_391_">
					
						<polyline fill="none" stroke="#1ABC9C" stroke-width="2" stroke-linecap="round" stroke-linejoin="round" stroke-miterlimit="10" points="
						1382.85,195.356 1376.211,201.972 1369.594,195.334 					"/>
				</g>
			</g>
		</g>
		<g>
			<g id="MTEXT_18_">
				<g>
					<g>
						<g>
							<path fill="#1ABC9C" d="M1372.294,131.904c-0.684-0.308-1.202-0.706-1.556-1.199c-0.353-0.493-0.541-1.003-0.564-1.531
								c0.001-0.108,0.037-0.195,0.108-0.261c0.072-0.066,0.163-0.1,0.271-0.099l0.811,0.001c0.132,0,0.239,0.027,0.323,0.082
								c0.084,0.054,0.15,0.159,0.197,0.315c0.155,0.611,0.494,1.045,1.016,1.298c0.521,0.252,1.136,0.379,1.845,0.381
								c0.863,0.001,1.551-0.205,2.062-0.618s0.767-1.004,0.768-1.772c0.003-1.464-0.891-2.196-2.678-2.199l-1.692-0.003
								c-0.12,0-0.219-0.039-0.297-0.117c-0.078-0.079-0.117-0.178-0.117-0.298l0.001-0.468c0.001-0.181,0.066-0.336,0.199-0.468
								l3.517-3.882l-5.328-0.009c-0.12-0.001-0.219-0.037-0.297-0.109c-0.078-0.071-0.116-0.168-0.116-0.287l0.001-0.648
								c0-0.132,0.039-0.237,0.117-0.315c0.078-0.077,0.178-0.116,0.298-0.115l7.128,0.012c0.132,0,0.236,0.039,0.314,0.116
								c0.077,0.078,0.117,0.184,0.116,0.315l-0.001,0.594c0,0.133-0.061,0.271-0.181,0.414l-3.517,3.937l0.288,0.001
								c1.224,0.038,2.192,0.356,2.905,0.959c0.713,0.601,1.068,1.477,1.066,2.629c-0.001,0.792-0.197,1.473-0.588,2.042
								c-0.391,0.57-0.935,1.007-1.631,1.312c-0.697,0.305-1.483,0.456-2.358,0.455
								C1373.787,132.365,1372.978,132.212,1372.294,131.904z"/>
							<path fill="#1ABC9C" d="M1383.193,131.796c-0.702-0.391-1.235-0.917-1.6-1.578c-0.365-0.659-0.548-1.38-0.546-2.16
								c0.002-1.032,0.417-2.135,1.247-3.311l3.446-4.782c0.012-0.012,0.045-0.054,0.1-0.126c0.054-0.072,0.122-0.128,0.207-0.17
								c0.084-0.042,0.18-0.062,0.288-0.062l0.882,0.002c0.108,0,0.194,0.039,0.261,0.116c0.065,0.078,0.099,0.172,0.099,0.279
								c0,0.061-0.03,0.139-0.091,0.234l-2.634,3.668c0.312-0.072,0.66-0.107,1.044-0.107c0.876,0.002,1.647,0.198,2.312,0.589
								c0.665,0.392,1.18,0.908,1.545,1.551c0.365,0.644,0.547,1.349,0.546,2.116c-0.001,0.769-0.186,1.485-0.553,2.15
								s-0.898,1.195-1.595,1.59c-0.697,0.396-1.52,0.592-2.468,0.59C1384.725,132.383,1383.894,132.188,1383.193,131.796z
								 M1387.128,130.57c0.443-0.216,0.799-0.536,1.063-0.962c0.265-0.425,0.397-0.938,0.398-1.538
								c0.001-0.588-0.133-1.096-0.402-1.522c-0.27-0.426-0.626-0.751-1.069-0.974c-0.444-0.222-0.924-0.334-1.439-0.335
								c-0.517-0.001-0.997,0.109-1.44,0.331c-0.444,0.221-0.799,0.544-1.064,0.97c-0.265,0.425-0.397,0.933-0.398,1.521
								c-0.001,0.6,0.13,1.113,0.394,1.54c0.264,0.426,0.617,0.748,1.061,0.965c0.443,0.216,0.924,0.324,1.439,0.325
								C1386.197,130.892,1386.684,130.785,1387.128,130.57z"/>
							<path fill="#1ABC9C" d="M1392.063,122.748c-0.054-0.072-0.068-0.162-0.045-0.271l0.4-2.52
								c0.049-0.348,0.217-0.521,0.505-0.521l1.152,0.002c0.083,0,0.152,0.03,0.207,0.091c0.054,0.061,0.08,0.133,0.08,0.217
								c0,0.12-0.019,0.216-0.055,0.288l-0.939,2.428c-0.061,0.132-0.127,0.231-0.199,0.297c-0.071,0.066-0.18,0.098-0.323,0.098
								l-0.559-0.001C1392.192,122.855,1392.117,122.819,1392.063,122.748z M1394.89,122.753c-0.055-0.073-0.069-0.163-0.045-0.271
								l0.4-2.519c0.049-0.348,0.217-0.521,0.505-0.521l1.151,0.002c0.084,0,0.153,0.03,0.207,0.09
								c0.055,0.061,0.081,0.133,0.081,0.217c0,0.12-0.019,0.216-0.055,0.288l-0.939,2.429c-0.061,0.132-0.127,0.231-0.199,0.296
								c-0.071,0.066-0.18,0.099-0.323,0.099l-0.559-0.001C1395.019,122.86,1394.943,122.824,1394.89,122.753z"/>
							<path fill="#1ABC9C" d="M1372.597,150.467c-0.066-0.078-0.1-0.171-0.099-0.279c0-0.083,0.023-0.161,0.072-0.233l2.778-3.848
								c-0.288,0.071-0.624,0.107-1.009,0.106c-0.863-0.013-1.619-0.216-2.267-0.606c-0.647-0.392-1.142-0.902-1.482-1.532
								c-0.341-0.631-0.511-1.306-0.51-2.026c0.001-0.72,0.174-1.403,0.517-2.051c0.343-0.648,0.854-1.175,1.532-1.582
								s1.498-0.609,2.458-0.608c0.96,0.002,1.782,0.201,2.465,0.6c0.684,0.396,1.198,0.917,1.546,1.559
								c0.347,0.643,0.52,1.33,0.519,2.062c-0.001,0.66-0.119,1.242-0.354,1.745c-0.235,0.504-0.545,1.026-0.93,1.565l-3.501,4.89
								c-0.084,0.108-0.165,0.195-0.242,0.262c-0.079,0.064-0.189,0.098-0.334,0.098l-0.899-0.001
								C1372.749,150.584,1372.662,150.545,1372.597,150.467z M1375.999,144.452c0.433-0.228,0.775-0.548,1.027-0.961
								c0.253-0.414,0.38-0.892,0.381-1.432c0.001-0.552-0.125-1.037-0.376-1.458s-0.593-0.745-1.024-0.974
								s-0.905-0.344-1.421-0.345c-0.504,0-0.97,0.113-1.396,0.34c-0.427,0.227-0.767,0.551-1.019,0.97
								c-0.253,0.421-0.38,0.906-0.381,1.458c-0.001,0.54,0.125,1.018,0.376,1.432c0.251,0.415,0.587,0.735,1.006,0.965
								c0.42,0.229,0.888,0.344,1.404,0.344C1375.093,144.792,1375.566,144.679,1375.999,144.452z"/>
							<path fill="#1ABC9C" d="M1384.684,150.486c-0.072-0.078-0.108-0.177-0.108-0.297l0.017-10.152l-3.027,2.317
								c-0.084,0.072-0.174,0.108-0.271,0.108c-0.107,0-0.21-0.062-0.306-0.182l-0.431-0.559c-0.061-0.084-0.09-0.168-0.09-0.252
								c0-0.132,0.061-0.24,0.181-0.323l3.911-3.018c0.132-0.084,0.288-0.125,0.468-0.125l0.847,0.001
								c0.119,0.001,0.219,0.04,0.296,0.117c0.078,0.078,0.117,0.178,0.117,0.298l-0.02,11.771c0,0.12-0.039,0.219-0.117,0.297
								c-0.079,0.078-0.178,0.117-0.298,0.116l-0.882-0.001C1384.851,150.604,1384.755,150.565,1384.684,150.486z"/>
							<path fill="#1ABC9C" d="M1388.994,150.494c-0.078-0.078-0.117-0.177-0.116-0.297l0.002-1.242
								c0-0.119,0.039-0.222,0.117-0.306s0.177-0.126,0.297-0.126l1.242,0.002c0.12,0.001,0.219,0.043,0.297,0.127
								s0.116,0.187,0.116,0.306l-0.002,1.242c0,0.12-0.039,0.219-0.117,0.297c-0.079,0.078-0.178,0.117-0.298,0.116l-1.241-0.002
								C1389.171,150.611,1389.071,150.572,1388.994,150.494z"/>
							<path fill="#1ABC9C" d="M1398.804,150.51c-0.078-0.078-0.117-0.177-0.116-0.297l0.004-2.628l-5.85-0.01
								c-0.12,0-0.219-0.039-0.297-0.117s-0.117-0.178-0.116-0.298l0.001-0.666c0-0.168,0.066-0.347,0.198-0.539l5.431-7.623
								c0.061-0.096,0.15-0.171,0.271-0.225s0.252-0.08,0.396-0.08l1.224,0.002c0.132,0,0.234,0.036,0.306,0.108
								c0.072,0.072,0.108,0.174,0.107,0.307l-0.012,7.632l1.638,0.003c0.12,0,0.219,0.039,0.297,0.117
								c0.077,0.078,0.116,0.177,0.116,0.297l-0.001,0.684c-0.001,0.12-0.04,0.219-0.117,0.297
								c-0.078,0.078-0.178,0.117-0.298,0.117l-1.638-0.003l-0.004,2.628c-0.001,0.12-0.04,0.219-0.118,0.297
								s-0.178,0.116-0.297,0.116l-0.828-0.001C1398.98,150.628,1398.882,150.588,1398.804,150.51z M1394.302,146.103l4.41,0.007
								l0.011-6.265L1394.302,146.103z"/>
							<path fill="#1ABC9C" d="M1409.506,149.735c-0.719-0.727-1.095-1.745-1.129-3.053l-0.017-0.72l0.019-0.721
								c0.039-1.308,0.418-2.323,1.14-3.049c0.721-0.725,1.723-1.086,3.008-1.084c0.863,0.002,1.593,0.156,2.186,0.463
								c0.594,0.307,1.037,0.689,1.33,1.145c0.293,0.458,0.452,0.913,0.475,1.369c0.013,0.108-0.026,0.204-0.117,0.288
								c-0.09,0.084-0.188,0.126-0.297,0.125l-0.792-0.001c-0.12,0-0.21-0.026-0.271-0.081c-0.06-0.055-0.119-0.153-0.179-0.298
								c-0.216-0.588-0.512-1.006-0.89-1.252c-0.377-0.247-0.854-0.371-1.43-0.372c-0.756-0.001-1.356,0.232-1.802,0.699
								c-0.444,0.468-0.686,1.182-0.724,2.142l-0.019,0.63l0.017,0.63c0.035,0.96,0.273,1.675,0.717,2.143
								c0.443,0.469,1.043,0.704,1.799,0.705c0.588,0.001,1.068-0.121,1.44-0.366c0.372-0.246,0.667-0.662,0.885-1.25
								c0.06-0.144,0.12-0.243,0.18-0.296c0.061-0.054,0.15-0.081,0.271-0.081l0.792,0.001c0.108,0.001,0.207,0.043,0.297,0.127
								s0.129,0.18,0.116,0.288c-0.024,0.444-0.185,0.895-0.479,1.349c-0.294,0.457-0.739,0.84-1.334,1.15
								c-0.594,0.311-1.323,0.466-2.187,0.464C1411.226,150.827,1410.225,150.463,1409.506,149.735z"/>
							<path fill="#1ABC9C" d="M1418.783,150.543c-0.078-0.078-0.116-0.177-0.116-0.297l0.014-8.532
								c0.001-0.119,0.039-0.219,0.117-0.297c0.079-0.078,0.178-0.117,0.298-0.117l0.756,0.002c0.12,0,0.216,0.039,0.288,0.117
								c0.071,0.078,0.107,0.178,0.107,0.297l-0.001,0.612c0.649-0.803,1.525-1.203,2.63-1.201c1.319,0.002,2.255,0.556,2.806,1.66
								c0.288-0.503,0.7-0.904,1.234-1.203c0.534-0.3,1.132-0.449,1.792-0.447c0.983,0.001,1.787,0.339,2.41,1.012
								c0.623,0.674,0.934,1.646,0.932,2.917l-0.009,5.202c0,0.12-0.039,0.219-0.117,0.297c-0.079,0.078-0.178,0.117-0.298,0.117
								l-0.773-0.002c-0.12,0-0.22-0.039-0.297-0.117c-0.078-0.078-0.117-0.177-0.116-0.297l0.008-5.04
								c0.002-0.96-0.195-1.647-0.591-2.062c-0.396-0.415-0.917-0.623-1.564-0.624c-0.576-0.001-1.071,0.211-1.486,0.636
								c-0.415,0.426-0.623,1.106-0.624,2.042l-0.009,5.04c0,0.12-0.039,0.219-0.117,0.297c-0.079,0.078-0.178,0.117-0.298,0.117
								l-0.792-0.002c-0.12,0-0.219-0.039-0.296-0.117c-0.078-0.078-0.117-0.177-0.117-0.297l0.009-5.04
								c0.001-0.947-0.205-1.633-0.618-2.053c-0.413-0.421-0.926-0.632-1.537-0.633c-0.576-0.001-1.072,0.208-1.487,0.627
								c-0.414,0.42-0.622,1.097-0.623,2.033l-0.009,5.058c0,0.12-0.04,0.219-0.117,0.297c-0.079,0.078-0.178,0.117-0.298,0.117
								l-0.792-0.002C1418.96,150.66,1418.861,150.621,1418.783,150.543z"/>
							<path fill="#1ABC9C" d="M1370.802,168.863c-0.078-0.078-0.116-0.177-0.116-0.297l0.014-8.532
								c0.001-0.119,0.039-0.219,0.117-0.297c0.079-0.078,0.178-0.117,0.298-0.116l0.756,0.001c0.12,0,0.216,0.039,0.288,0.117
								c0.071,0.079,0.107,0.179,0.107,0.298l-0.001,0.612c0.649-0.803,1.525-1.204,2.63-1.202c1.319,0.002,2.255,0.556,2.806,1.661
								c0.288-0.504,0.7-0.905,1.234-1.204s1.132-0.448,1.792-0.447c0.983,0.001,1.787,0.339,2.41,1.012
								c0.623,0.674,0.934,1.646,0.932,2.917l-0.009,5.202c0,0.12-0.039,0.219-0.117,0.297c-0.079,0.078-0.178,0.117-0.298,0.117
								l-0.773-0.002c-0.12,0-0.22-0.039-0.297-0.117c-0.078-0.078-0.117-0.177-0.116-0.297l0.008-5.04
								c0.002-0.96-0.195-1.647-0.591-2.062c-0.396-0.415-0.917-0.623-1.564-0.624c-0.576-0.001-1.071,0.211-1.486,0.637
								c-0.415,0.425-0.623,1.106-0.624,2.042l-0.009,5.04c0,0.12-0.039,0.219-0.117,0.296c-0.079,0.078-0.178,0.117-0.298,0.117
								l-0.792-0.001c-0.12-0.001-0.219-0.04-0.296-0.118c-0.078-0.078-0.117-0.177-0.117-0.297l0.009-5.04
								c0.001-0.947-0.205-1.633-0.618-2.053c-0.413-0.421-0.926-0.632-1.537-0.633c-0.576-0.001-1.072,0.208-1.487,0.628
								c-0.414,0.419-0.622,1.097-0.623,2.033l-0.009,5.058c0,0.12-0.04,0.219-0.117,0.296c-0.079,0.078-0.178,0.117-0.298,0.117
								l-0.792-0.001C1370.979,168.98,1370.88,168.941,1370.802,168.863z"/>
							<path fill="#1ABC9C" d="M1386.66,157.766c-0.078-0.078-0.116-0.177-0.116-0.297l0.001-0.936
								c0.001-0.12,0.039-0.223,0.118-0.307c0.078-0.084,0.177-0.126,0.297-0.126l1.062,0.002c0.119,0,0.222,0.042,0.305,0.127
								c0.084,0.084,0.126,0.187,0.126,0.307l-0.002,0.936c0,0.12-0.042,0.219-0.126,0.297c-0.084,0.077-0.187,0.116-0.306,0.116
								l-1.062-0.002C1386.837,157.883,1386.738,157.844,1386.66,157.766z M1386.786,168.89c-0.078-0.078-0.117-0.177-0.116-0.297
								l0.014-8.532c0-0.119,0.039-0.219,0.117-0.297s0.178-0.117,0.298-0.116l0.792,0.001c0.119,0,0.219,0.039,0.296,0.117
								c0.078,0.079,0.117,0.179,0.117,0.298l-0.014,8.532c-0.001,0.12-0.04,0.219-0.118,0.296
								c-0.078,0.078-0.178,0.117-0.297,0.117l-0.792-0.001C1386.963,169.007,1386.863,168.968,1386.786,168.89z"/>
							<path fill="#1ABC9C" d="M1391.105,168.896c-0.078-0.078-0.116-0.177-0.116-0.297l0.014-8.532
								c0.001-0.119,0.039-0.219,0.117-0.297c0.079-0.078,0.178-0.116,0.298-0.116l0.774,0.001c0.132,0,0.233,0.037,0.306,0.109
								c0.071,0.072,0.107,0.174,0.107,0.306l-0.001,0.792c0.36-0.443,0.777-0.784,1.252-1.023s1.065-0.358,1.773-0.357
								c1.152,0.002,2.046,0.372,2.681,1.111s0.951,1.715,0.949,2.927l-0.009,5.094c0,0.12-0.039,0.219-0.117,0.297
								s-0.178,0.117-0.297,0.116l-0.828-0.001c-0.12,0-0.22-0.039-0.297-0.118c-0.078-0.078-0.117-0.177-0.116-0.297l0.008-4.986
								c0.001-0.863-0.207-1.535-0.627-2.017c-0.419-0.48-1.019-0.722-1.799-0.723c-0.768-0.001-1.38,0.241-1.837,0.726
								c-0.457,0.485-0.687,1.154-0.688,2.006l-0.008,4.986c-0.001,0.12-0.04,0.219-0.117,0.297
								c-0.079,0.078-0.178,0.116-0.298,0.116l-0.828-0.001C1391.282,169.015,1391.184,168.975,1391.105,168.896z"/>
							<path fill="#1ABC9C" d="M1401.852,157.79c-0.078-0.078-0.116-0.177-0.116-0.297l0.001-0.936
								c0.001-0.12,0.039-0.223,0.118-0.307c0.078-0.083,0.177-0.125,0.297-0.125l1.062,0.002c0.119,0,0.222,0.042,0.305,0.126
								c0.084,0.084,0.126,0.187,0.126,0.307l-0.002,0.936c0,0.12-0.042,0.219-0.126,0.297s-0.187,0.117-0.306,0.117l-1.062-0.002
								C1402.028,157.908,1401.93,157.869,1401.852,157.79z M1401.978,168.915c-0.078-0.078-0.117-0.178-0.116-0.298l0.014-8.532
								c0-0.119,0.039-0.218,0.117-0.296s0.178-0.117,0.298-0.117l0.792,0.001c0.119,0.001,0.219,0.04,0.296,0.118
								c0.078,0.078,0.117,0.178,0.117,0.297l-0.014,8.532c-0.001,0.12-0.04,0.219-0.118,0.297s-0.178,0.117-0.297,0.116
								l-0.792-0.001C1402.154,169.032,1402.055,168.993,1401.978,168.915z"/>
							<path fill="#1ABC9C" d="M1406.297,168.922c-0.078-0.078-0.116-0.177-0.116-0.297l0.014-8.532
								c0.001-0.119,0.039-0.219,0.117-0.297c0.079-0.078,0.178-0.117,0.298-0.117l0.756,0.002c0.12,0,0.216,0.039,0.288,0.117
								c0.071,0.078,0.107,0.178,0.107,0.297l-0.001,0.612c0.649-0.803,1.525-1.203,2.63-1.201c1.319,0.002,2.255,0.556,2.806,1.661
								c0.288-0.504,0.7-0.905,1.234-1.204c0.534-0.3,1.132-0.449,1.792-0.447c0.983,0.001,1.787,0.339,2.41,1.012
								c0.623,0.674,0.934,1.646,0.932,2.917l-0.009,5.202c0,0.12-0.039,0.219-0.117,0.297c-0.079,0.078-0.178,0.117-0.298,0.117
								l-0.773-0.002c-0.12,0-0.22-0.039-0.297-0.117c-0.078-0.078-0.117-0.177-0.116-0.297l0.008-5.04
								c0.002-0.96-0.195-1.647-0.591-2.062c-0.396-0.415-0.917-0.623-1.564-0.624c-0.576-0.001-1.071,0.211-1.486,0.636
								c-0.415,0.426-0.623,1.106-0.624,2.042l-0.009,5.04c0,0.12-0.039,0.219-0.117,0.297c-0.079,0.078-0.178,0.117-0.298,0.117
								l-0.792-0.002c-0.12,0-0.219-0.039-0.296-0.117c-0.078-0.078-0.117-0.177-0.117-0.297l0.009-5.04
								c0.001-0.947-0.205-1.633-0.618-2.053c-0.413-0.421-0.926-0.632-1.537-0.633c-0.576-0.001-1.072,0.208-1.487,0.627
								c-0.414,0.42-0.622,1.097-0.623,2.033l-0.009,5.058c0,0.12-0.04,0.219-0.117,0.297c-0.079,0.078-0.178,0.117-0.298,0.117
								l-0.792-0.002C1406.474,169.039,1406.375,169,1406.297,168.922z"/>
							<path fill="#1ABC9C" d="M1423.011,168.14c-0.622-0.739-0.933-1.722-0.931-2.945l0.008-5.076
								c0.001-0.119,0.04-0.218,0.118-0.296s0.177-0.117,0.297-0.117l0.828,0.002c0.12,0,0.219,0.039,0.297,0.117
								s0.117,0.178,0.116,0.297l-0.008,4.986c-0.003,1.824,0.787,2.738,2.371,2.74c0.768,0.002,1.378-0.24,1.829-0.727
								c0.45-0.485,0.677-1.153,0.678-2.006l0.008-4.986c0.001-0.119,0.04-0.218,0.118-0.296s0.177-0.117,0.297-0.117l0.828,0.002
								c0.12,0,0.219,0.039,0.297,0.117s0.117,0.178,0.116,0.297l-0.014,8.532c0,0.12-0.039,0.219-0.117,0.297
								c-0.079,0.078-0.178,0.117-0.298,0.117l-0.773-0.002c-0.12,0-0.22-0.039-0.297-0.117c-0.078-0.078-0.117-0.177-0.116-0.297
								l0.001-0.81c-0.349,0.467-0.758,0.816-1.226,1.051c-0.469,0.233-1.062,0.349-1.783,0.348
								C1424.516,169.249,1423.634,168.878,1423.011,168.14z"/>
							<path fill="#1ABC9C" d="M1433.081,168.966c-0.078-0.078-0.117-0.177-0.116-0.297l0.014-8.532
								c0-0.119,0.039-0.219,0.117-0.297s0.178-0.117,0.298-0.116l0.756,0.001c0.119,0,0.216,0.039,0.287,0.117
								c0.072,0.078,0.108,0.178,0.107,0.297l-0.001,0.612c0.649-0.802,1.526-1.203,2.63-1.201c1.32,0.002,2.256,0.556,2.806,1.661
								c0.289-0.504,0.7-0.905,1.235-1.204c0.534-0.299,1.132-0.448,1.792-0.447c0.983,0.001,1.787,0.339,2.41,1.012
								c0.622,0.674,0.934,1.646,0.932,2.917l-0.009,5.202c0,0.12-0.04,0.219-0.118,0.297s-0.177,0.117-0.297,0.117l-0.773-0.002
								c-0.12,0-0.22-0.039-0.298-0.117s-0.116-0.177-0.116-0.297l0.009-5.04c0.001-0.96-0.195-1.647-0.591-2.062
								c-0.396-0.415-0.917-0.623-1.565-0.624c-0.575-0.001-1.071,0.211-1.485,0.637c-0.415,0.425-0.623,1.105-0.625,2.041
								l-0.008,5.04c0,0.12-0.04,0.219-0.118,0.297s-0.177,0.117-0.297,0.117l-0.792-0.002c-0.12,0-0.22-0.039-0.297-0.117
								c-0.078-0.078-0.117-0.177-0.116-0.297l0.008-5.04c0.002-0.947-0.204-1.633-0.617-2.053
								c-0.413-0.421-0.926-0.632-1.538-0.633c-0.576-0.001-1.071,0.208-1.486,0.628c-0.415,0.419-0.622,1.097-0.624,2.033
								l-0.008,5.058c-0.001,0.12-0.04,0.218-0.118,0.296s-0.178,0.117-0.297,0.117l-0.792-0.001
								C1433.258,169.083,1433.158,169.044,1433.081,168.966z"/>
						</g>
					</g>
				</g>
			</g>
		</g>
	</g>
	<g display="inline">
		<g>
			
				<line fill="none" stroke="#1ABC9C" stroke-width="2" stroke-linecap="round" stroke-linejoin="round" stroke-miterlimit="10" x1="218.299" y1="232.061" x2="218.299" y2="214.64"/>
			
				<polyline fill="none" stroke="#1ABC9C" stroke-width="2" stroke-linecap="round" stroke-linejoin="round" stroke-miterlimit="10" points="
				213.824,218.755 218.299,214.28 222.774,218.755 			"/>
			
				<polyline fill="none" stroke="#1ABC9C" stroke-width="2" stroke-linecap="round" stroke-linejoin="round" stroke-miterlimit="10" points="
				222.628,228.124 218.299,232.452 213.97,228.124 			"/>
		</g>
		<g>
			<g>
				<path fill="#1ABC9C" d="M197.212,214.085c-0.051-0.061-0.077-0.133-0.077-0.217l0.028-0.126l3.5-8.19h-4.62
					c-0.093,0-0.17-0.03-0.231-0.091c-0.061-0.061-0.091-0.138-0.091-0.231v-0.518c0-0.103,0.028-0.185,0.084-0.245
					c0.056-0.061,0.135-0.091,0.238-0.091h5.712c0.103,0,0.182,0.03,0.238,0.091c0.056,0.061,0.084,0.143,0.084,0.245v0.476
					c0,0.168-0.038,0.351-0.112,0.546l-3.458,8.093c-0.047,0.103-0.098,0.187-0.154,0.252s-0.135,0.098-0.238,0.098h-0.7
					C197.332,214.176,197.264,214.146,197.212,214.085z"/>
				<path fill="#1ABC9C" d="M203.303,206.812c-0.042-0.056-0.054-0.126-0.035-0.21l0.308-1.96c0.037-0.271,0.168-0.406,0.392-0.406
					h0.896c0.065,0,0.119,0.023,0.161,0.07s0.063,0.103,0.063,0.168c0,0.094-0.014,0.168-0.042,0.225l-0.728,1.89
					c-0.046,0.103-0.098,0.18-0.154,0.23c-0.056,0.052-0.14,0.077-0.252,0.077h-0.434
					C203.403,206.896,203.345,206.868,203.303,206.812z M205.5,206.812c-0.042-0.056-0.054-0.126-0.035-0.21l0.308-1.96
					c0.037-0.271,0.168-0.406,0.392-0.406h0.896c0.065,0,0.119,0.023,0.161,0.07s0.063,0.103,0.063,0.168
					c0,0.094-0.014,0.168-0.042,0.225l-0.728,1.89c-0.047,0.103-0.098,0.18-0.154,0.23c-0.056,0.052-0.14,0.077-0.252,0.077h-0.434
					C205.601,206.896,205.542,206.868,205.5,206.812z"/>
				<path fill="#1ABC9C" d="M173.07,226.485c-0.056-0.061-0.084-0.138-0.084-0.231v-7.896l-2.352,1.806
					c-0.065,0.056-0.136,0.084-0.21,0.084c-0.084,0-0.164-0.047-0.238-0.14l-0.336-0.435c-0.047-0.064-0.07-0.13-0.07-0.195
					c0-0.103,0.046-0.187,0.14-0.252l3.038-2.353c0.103-0.065,0.224-0.098,0.364-0.098h0.658c0.093,0,0.17,0.03,0.231,0.091
					c0.061,0.061,0.091,0.138,0.091,0.231v9.155c0,0.094-0.03,0.171-0.091,0.231c-0.061,0.061-0.138,0.091-0.231,0.091h-0.686
					C173.201,226.576,173.126,226.546,173.07,226.485z"/>
				<path fill="#1ABC9C" d="M177.921,226.359c-0.556-0.238-0.987-0.581-1.295-1.029s-0.462-0.971-0.462-1.568
					c0-0.55,0.137-1.033,0.413-1.448s0.646-0.735,1.113-0.959c-0.374-0.215-0.663-0.497-0.868-0.848
					c-0.205-0.35-0.308-0.763-0.308-1.238c0-0.812,0.303-1.454,0.91-1.926c0.606-0.471,1.405-0.707,2.394-0.707
					s1.785,0.233,2.387,0.7c0.602,0.467,0.903,1.111,0.903,1.933c0,0.467-0.103,0.875-0.308,1.225
					c-0.206,0.35-0.49,0.637-0.854,0.861c0.467,0.224,0.838,0.544,1.113,0.959c0.275,0.415,0.413,0.902,0.413,1.463
					c0,0.598-0.154,1.117-0.462,1.561s-0.74,0.784-1.295,1.022s-1.188,0.356-1.897,0.356
					C179.108,226.716,178.476,226.598,177.921,226.359z M181.477,225.12c0.443-0.336,0.665-0.784,0.665-1.344
					c0-0.561-0.222-1.008-0.665-1.344c-0.443-0.337-0.997-0.505-1.659-0.505c-0.672,0-1.23,0.168-1.673,0.505
					c-0.443,0.336-0.665,0.783-0.665,1.344c0,0.56,0.222,1.008,0.665,1.344c0.443,0.336,1.001,0.504,1.673,0.504
					C180.48,225.624,181.034,225.456,181.477,225.12z M181.26,220.416c0.392-0.28,0.588-0.653,0.588-1.12
					c0-0.476-0.193-0.855-0.581-1.141c-0.388-0.285-0.871-0.427-1.449-0.427c-0.588,0-1.073,0.142-1.456,0.427
					s-0.574,0.665-0.574,1.141c0,0.477,0.191,0.856,0.574,1.142c0.383,0.284,0.868,0.427,1.456,0.427
					C180.387,220.846,180.868,220.696,181.26,220.416z"/>
				<path fill="#1ABC9C" d="M189.324,225.869c-0.56-0.564-0.854-1.355-0.882-2.373l-0.014-0.56l0.014-0.561
					c0.028-1.017,0.322-1.808,0.882-2.373c0.56-0.564,1.339-0.847,2.338-0.847c0.672,0,1.239,0.119,1.701,0.356
					c0.462,0.238,0.807,0.535,1.036,0.89c0.229,0.354,0.352,0.709,0.371,1.063c0.009,0.084-0.021,0.159-0.091,0.225
					s-0.147,0.098-0.231,0.098h-0.616c-0.093,0-0.163-0.021-0.21-0.062s-0.093-0.119-0.14-0.231
					c-0.168-0.457-0.399-0.781-0.693-0.973s-0.665-0.287-1.113-0.287c-0.588,0-1.055,0.182-1.4,0.546
					c-0.346,0.364-0.532,0.919-0.56,1.666l-0.014,0.49l0.014,0.489c0.028,0.747,0.214,1.303,0.56,1.666
					c0.345,0.364,0.812,0.546,1.4,0.546c0.457,0,0.831-0.095,1.12-0.286c0.289-0.191,0.518-0.516,0.686-0.974
					c0.046-0.111,0.093-0.188,0.14-0.23s0.117-0.063,0.21-0.063h0.616c0.084,0,0.161,0.033,0.231,0.099s0.1,0.14,0.091,0.224
					c-0.019,0.346-0.142,0.695-0.371,1.05c-0.229,0.354-0.574,0.653-1.036,0.896c-0.462,0.242-1.029,0.363-1.701,0.363
					C190.663,226.716,189.884,226.434,189.324,225.869z"/>
				<path fill="#1ABC9C" d="M196.541,226.485c-0.061-0.061-0.091-0.138-0.091-0.231v-6.636c0-0.093,0.03-0.17,0.091-0.231
					c0.061-0.061,0.138-0.091,0.231-0.091h0.588c0.093,0,0.168,0.03,0.224,0.091c0.056,0.062,0.084,0.139,0.084,0.231v0.476
					c0.504-0.625,1.185-0.938,2.044-0.938c1.026,0,1.754,0.43,2.184,1.288c0.224-0.393,0.543-0.705,0.959-0.938
					c0.415-0.232,0.879-0.35,1.393-0.35c0.765,0,1.391,0.262,1.876,0.784c0.485,0.522,0.728,1.278,0.728,2.268v4.046
					c0,0.094-0.031,0.171-0.091,0.231s-0.138,0.091-0.231,0.091h-0.602c-0.093,0-0.17-0.03-0.231-0.091s-0.091-0.138-0.091-0.231
					v-3.92c0-0.746-0.154-1.281-0.462-1.603c-0.308-0.322-0.714-0.483-1.218-0.483c-0.448,0-0.833,0.166-1.155,0.497
					c-0.322,0.331-0.483,0.861-0.483,1.589v3.92c0,0.094-0.031,0.171-0.091,0.231s-0.138,0.091-0.231,0.091h-0.616
					c-0.094,0-0.17-0.03-0.231-0.091c-0.061-0.061-0.091-0.138-0.091-0.231v-3.92c0-0.737-0.161-1.269-0.483-1.596
					s-0.721-0.49-1.197-0.49c-0.448,0-0.833,0.163-1.155,0.49c-0.322,0.327-0.483,0.854-0.483,1.582v3.934
					c0,0.094-0.03,0.171-0.091,0.231c-0.061,0.061-0.138,0.091-0.231,0.091h-0.616C196.678,226.576,196.601,226.546,196.541,226.485
					z"/>
			</g>
		</g>
	</g>
	<g display="inline">
		<g>
			
				<line fill="none" stroke="#1ABC9C" stroke-width="2" stroke-linecap="round" stroke-linejoin="round" stroke-miterlimit="10" x1="229.103" y1="203.866" x2="259.525" y2="203.866"/>
			
				<polyline fill="none" stroke="#1ABC9C" stroke-width="2" stroke-linecap="round" stroke-linejoin="round" stroke-miterlimit="10" points="
				255.41,199.391 259.885,203.866 255.41,208.341 			"/>
			
				<polyline fill="none" stroke="#1ABC9C" stroke-width="2" stroke-linecap="round" stroke-linejoin="round" stroke-miterlimit="10" points="
				233.041,208.195 228.712,203.866 233.041,199.537 			"/>
		</g>
		<g>
			<g>
				<path fill="#1ABC9C" d="M246.196,175.085c-0.056-0.061-0.084-0.138-0.084-0.231v-7.896l-2.352,1.806
					c-0.065,0.056-0.136,0.084-0.21,0.084c-0.084,0-0.164-0.047-0.238-0.14l-0.336-0.435c-0.047-0.064-0.07-0.13-0.07-0.195
					c0-0.103,0.046-0.187,0.14-0.252l3.038-2.353c0.103-0.065,0.224-0.098,0.364-0.098h0.658c0.093,0,0.17,0.03,0.231,0.091
					c0.061,0.061,0.091,0.138,0.091,0.231v9.155c0,0.094-0.03,0.171-0.091,0.231c-0.061,0.061-0.138,0.091-0.231,0.091h-0.686
					C246.326,175.176,246.251,175.146,246.196,175.085z"/>
				<path fill="#1ABC9C" d="M252.146,175.085c-0.056-0.061-0.084-0.138-0.084-0.231v-7.896l-2.352,1.806
					c-0.065,0.056-0.136,0.084-0.21,0.084c-0.084,0-0.164-0.047-0.238-0.14l-0.336-0.435c-0.047-0.064-0.07-0.13-0.07-0.195
					c0-0.103,0.046-0.187,0.14-0.252l3.038-2.353c0.103-0.065,0.224-0.098,0.364-0.098h0.658c0.093,0,0.17,0.03,0.231,0.091
					c0.061,0.061,0.091,0.138,0.091,0.231v9.155c0,0.094-0.03,0.171-0.091,0.231c-0.061,0.061-0.138,0.091-0.231,0.091h-0.686
					C252.276,175.176,252.201,175.146,252.146,175.085z"/>
				<path fill="#1ABC9C" d="M255.303,167.812c-0.042-0.056-0.054-0.126-0.035-0.21l0.308-1.96c0.037-0.271,0.168-0.406,0.392-0.406
					h0.896c0.065,0,0.119,0.023,0.161,0.07s0.063,0.103,0.063,0.168c0,0.094-0.014,0.168-0.042,0.225l-0.728,1.89
					c-0.046,0.103-0.098,0.18-0.154,0.23c-0.056,0.052-0.14,0.077-0.252,0.077h-0.434
					C255.403,167.896,255.345,167.868,255.303,167.812z M257.5,167.812c-0.042-0.056-0.054-0.126-0.035-0.21l0.308-1.96
					c0.037-0.271,0.168-0.406,0.392-0.406h0.896c0.065,0,0.119,0.023,0.161,0.07s0.063,0.103,0.063,0.168
					c0,0.094-0.014,0.168-0.042,0.225l-0.728,1.89c-0.047,0.103-0.098,0.18-0.154,0.23c-0.056,0.052-0.14,0.077-0.252,0.077h-0.434
					C257.601,167.896,257.542,167.868,257.5,167.812z"/>
				<path fill="#1ABC9C" d="M219.98,189.485c-0.061-0.061-0.091-0.138-0.091-0.231v-0.42c0-0.215,0.117-0.42,0.35-0.616l3.052-3.038
					c0.691-0.588,1.167-1.068,1.428-1.441c0.261-0.373,0.392-0.771,0.392-1.19c0-0.55-0.154-0.981-0.462-1.295
					c-0.308-0.312-0.756-0.469-1.344-0.469c-0.56,0-1.003,0.163-1.33,0.49c-0.327,0.326-0.527,0.766-0.602,1.315
					c-0.019,0.104-0.065,0.183-0.14,0.238s-0.149,0.084-0.224,0.084h-0.672c-0.084,0-0.154-0.028-0.21-0.084
					c-0.056-0.056-0.084-0.121-0.084-0.196c0.019-0.494,0.152-0.973,0.399-1.435c0.248-0.462,0.614-0.84,1.099-1.134
					s1.073-0.441,1.764-0.441c1.045,0,1.832,0.273,2.359,0.819s0.791,1.238,0.791,2.079c0,0.588-0.143,1.117-0.427,1.589
					c-0.285,0.472-0.73,0.968-1.337,1.491l-2.758,2.8h4.41c0.103,0,0.182,0.027,0.238,0.084c0.056,0.056,0.084,0.135,0.084,0.238
					v0.531c0,0.094-0.03,0.171-0.091,0.231c-0.061,0.061-0.138,0.091-0.231,0.091h-6.132
					C220.118,189.576,220.041,189.546,219.98,189.485z"/>
				<path fill="#1ABC9C" d="M229.92,189.359c-0.556-0.238-0.987-0.581-1.295-1.029s-0.462-0.971-0.462-1.568
					c0-0.55,0.137-1.033,0.413-1.448s0.646-0.735,1.113-0.959c-0.374-0.215-0.663-0.497-0.868-0.848
					c-0.205-0.35-0.308-0.763-0.308-1.238c0-0.812,0.303-1.454,0.91-1.926c0.606-0.471,1.405-0.707,2.394-0.707
					s1.785,0.233,2.387,0.7c0.602,0.467,0.903,1.111,0.903,1.933c0,0.467-0.103,0.875-0.308,1.225
					c-0.206,0.35-0.49,0.637-0.854,0.861c0.467,0.224,0.838,0.544,1.113,0.959c0.275,0.415,0.413,0.902,0.413,1.463
					c0,0.598-0.154,1.117-0.462,1.561s-0.74,0.784-1.295,1.022s-1.188,0.356-1.897,0.356
					C231.108,189.716,230.476,189.598,229.92,189.359z M233.477,188.12c0.443-0.336,0.665-0.784,0.665-1.344
					c0-0.561-0.222-1.008-0.665-1.344c-0.443-0.337-0.997-0.505-1.659-0.505c-0.672,0-1.23,0.168-1.673,0.505
					c-0.443,0.336-0.665,0.783-0.665,1.344c0,0.56,0.222,1.008,0.665,1.344c0.443,0.336,1.001,0.504,1.673,0.504
					C232.48,188.624,233.033,188.456,233.477,188.12z M233.259,183.416c0.392-0.28,0.588-0.653,0.588-1.12
					c0-0.476-0.193-0.855-0.581-1.141c-0.388-0.285-0.871-0.427-1.449-0.427c-0.588,0-1.073,0.142-1.456,0.427
					s-0.574,0.665-0.574,1.141c0,0.477,0.191,0.856,0.574,1.142c0.383,0.284,0.868,0.427,1.456,0.427
					C232.387,183.846,232.867,183.696,233.259,183.416z"/>
				<path fill="#1ABC9C" d="M241.323,188.869c-0.56-0.564-0.854-1.355-0.882-2.373l-0.014-0.56l0.014-0.561
					c0.028-1.017,0.322-1.808,0.882-2.373c0.56-0.564,1.339-0.847,2.338-0.847c0.672,0,1.239,0.119,1.701,0.356
					c0.462,0.238,0.807,0.535,1.036,0.89c0.229,0.354,0.352,0.709,0.371,1.063c0.009,0.084-0.021,0.159-0.091,0.225
					s-0.147,0.098-0.231,0.098h-0.616c-0.093,0-0.163-0.021-0.21-0.062s-0.093-0.119-0.14-0.231
					c-0.168-0.457-0.399-0.781-0.693-0.973s-0.665-0.287-1.113-0.287c-0.588,0-1.055,0.182-1.4,0.546
					c-0.346,0.364-0.532,0.919-0.56,1.666l-0.014,0.49l0.014,0.489c0.028,0.747,0.214,1.303,0.56,1.666
					c0.345,0.364,0.812,0.546,1.4,0.546c0.457,0,0.831-0.095,1.12-0.286c0.289-0.191,0.518-0.516,0.686-0.974
					c0.046-0.111,0.093-0.188,0.14-0.23s0.117-0.063,0.21-0.063h0.616c0.084,0,0.161,0.033,0.231,0.099s0.1,0.14,0.091,0.224
					c-0.019,0.346-0.142,0.695-0.371,1.05c-0.229,0.354-0.574,0.653-1.036,0.896c-0.462,0.242-1.029,0.363-1.701,0.363
					C242.663,189.716,241.883,189.434,241.323,188.869z"/>
				<path fill="#1ABC9C" d="M248.54,189.485c-0.061-0.061-0.091-0.138-0.091-0.231v-6.636c0-0.093,0.03-0.17,0.091-0.231
					c0.061-0.061,0.138-0.091,0.231-0.091h0.588c0.093,0,0.168,0.03,0.224,0.091c0.056,0.062,0.084,0.139,0.084,0.231v0.476
					c0.504-0.625,1.185-0.938,2.044-0.938c1.026,0,1.754,0.43,2.184,1.288c0.224-0.393,0.543-0.705,0.959-0.938
					c0.415-0.232,0.879-0.35,1.393-0.35c0.765,0,1.391,0.262,1.876,0.784c0.485,0.522,0.728,1.278,0.728,2.268v4.046
					c0,0.094-0.031,0.171-0.091,0.231s-0.138,0.091-0.231,0.091h-0.602c-0.093,0-0.17-0.03-0.231-0.091s-0.091-0.138-0.091-0.231
					v-3.92c0-0.746-0.154-1.281-0.462-1.603c-0.308-0.322-0.714-0.483-1.218-0.483c-0.448,0-0.833,0.166-1.155,0.497
					c-0.322,0.331-0.483,0.861-0.483,1.589v3.92c0,0.094-0.031,0.171-0.091,0.231s-0.138,0.091-0.231,0.091h-0.616
					c-0.094,0-0.17-0.03-0.231-0.091c-0.061-0.061-0.091-0.138-0.091-0.231v-3.92c0-0.737-0.161-1.269-0.483-1.596
					s-0.721-0.49-1.197-0.49c-0.448,0-0.833,0.163-1.155,0.49c-0.322,0.327-0.483,0.854-0.483,1.582v3.934
					c0,0.094-0.03,0.171-0.091,0.231c-0.061,0.061-0.138,0.091-0.231,0.091h-0.616C248.678,189.576,248.601,189.546,248.54,189.485z
					"/>
			</g>
		</g>
	</g>
	<g display="inline">
		<g>
			<g>
				<g>
					<g id="LINE_11_">
						
							<line fill="none" stroke="#1ABC9C" stroke-width="2" stroke-linecap="round" stroke-linejoin="round" stroke-miterlimit="10" x1="1016" y1="445.902" x2="976.479" y2="445.902"/>
					</g>
					<g id="POLYLINE_173_">
						
							<polyline fill="none" stroke="#1ABC9C" stroke-width="2" stroke-linecap="round" stroke-linejoin="round" stroke-miterlimit="10" points="
							983.107,452.53 976.479,445.902 983.107,439.274 						"/>
					</g>
				</g>
				<g>
					<g id="POLYLINE_172_">
						
							<line fill="none" stroke="#1ABC9C" stroke-width="2" stroke-linecap="round" stroke-linejoin="round" stroke-miterlimit="10" x1="1093.119" y1="445.902" x2="1056" y2="445.902"/>
					</g>
					<g id="POLYLINE_171_">
						
							<polyline fill="none" stroke="#1ABC9C" stroke-width="2" stroke-linecap="round" stroke-linejoin="round" stroke-miterlimit="10" points="
							1086.492,439.274 1093.119,445.902 1086.492,452.53 						"/>
					</g>
				</g>
			</g>
		</g>
		<g>
			<g id="MTEXT_21_">
				<g>
					<g>
						<g>
							<path fill="#1ABC9C" d="M1026.315,452.713c-0.685-0.306-1.203-0.704-1.558-1.196c-0.354-0.492-0.543-1.002-0.566-1.53
								c0-0.108,0.036-0.195,0.107-0.261c0.072-0.066,0.162-0.1,0.271-0.1h0.81c0.133,0,0.24,0.027,0.324,0.081
								s0.15,0.159,0.198,0.315c0.155,0.611,0.495,1.044,1.017,1.296c0.522,0.252,1.137,0.378,1.846,0.378
								c0.863,0,1.551-0.207,2.061-0.621s0.766-1.005,0.766-1.773c0-1.464-0.895-2.195-2.682-2.195h-1.693
								c-0.119,0-0.219-0.039-0.297-0.117s-0.117-0.177-0.117-0.297v-0.468c0-0.181,0.066-0.336,0.199-0.469l3.51-3.888h-5.328
								c-0.12,0-0.219-0.036-0.297-0.108c-0.078-0.071-0.117-0.168-0.117-0.287v-0.648c0-0.132,0.039-0.237,0.117-0.315
								c0.078-0.077,0.177-0.116,0.297-0.116h7.128c0.132,0,0.237,0.039,0.315,0.116c0.077,0.078,0.117,0.184,0.117,0.315v0.594
								c0,0.133-0.061,0.271-0.181,0.414l-3.511,3.942h0.289c1.224,0.036,2.192,0.354,2.906,0.954
								c0.715,0.6,1.071,1.476,1.071,2.628c0,0.792-0.195,1.473-0.585,2.043c-0.391,0.57-0.934,1.008-1.629,1.313
								c-0.696,0.307-1.482,0.459-2.357,0.459C1027.81,453.172,1027,453.02,1026.315,452.713z"/>
							<path fill="#1ABC9C" d="M1037.215,452.587c-0.703-0.39-1.236-0.915-1.603-1.575c-0.366-0.659-0.55-1.379-0.55-2.159
								c0-1.032,0.414-2.136,1.242-3.312l3.438-4.788c0.012-0.012,0.045-0.054,0.099-0.126c0.055-0.072,0.123-0.129,0.207-0.171
								s0.18-0.062,0.288-0.062h0.882c0.108,0,0.195,0.039,0.262,0.116c0.065,0.078,0.099,0.172,0.099,0.279
								c0,0.061-0.03,0.139-0.09,0.234l-2.628,3.672c0.312-0.072,0.66-0.108,1.044-0.108c0.876,0,1.647,0.195,2.313,0.585
								c0.666,0.391,1.182,0.906,1.547,1.548c0.366,0.643,0.549,1.348,0.549,2.115c0,0.769-0.183,1.485-0.549,2.151
								c-0.365,0.666-0.896,1.197-1.592,1.593c-0.697,0.396-1.52,0.594-2.467,0.594
								C1038.747,453.172,1037.916,452.978,1037.215,452.587z M1041.146,451.354c0.444-0.216,0.799-0.537,1.062-0.963
								s0.396-0.939,0.396-1.539c0-0.588-0.135-1.096-0.405-1.521s-0.628-0.75-1.071-0.972s-0.924-0.333-1.439-0.333
								c-0.517,0-0.996,0.111-1.44,0.333s-0.798,0.546-1.062,0.972c-0.265,0.426-0.396,0.934-0.396,1.521
								c0,0.6,0.132,1.113,0.396,1.539c0.264,0.426,0.617,0.747,1.062,0.963s0.924,0.323,1.44,0.323
								C1040.217,451.678,1040.703,451.57,1041.146,451.354z"/>
							<path fill="#1ABC9C" d="M1046.07,443.524c-0.055-0.072-0.069-0.162-0.045-0.271l0.396-2.52
								c0.048-0.348,0.216-0.522,0.504-0.522h1.152c0.083,0,0.153,0.03,0.207,0.09c0.054,0.061,0.081,0.133,0.081,0.217
								c0,0.12-0.018,0.216-0.055,0.288l-0.936,2.43c-0.061,0.132-0.126,0.231-0.198,0.297c-0.071,0.066-0.18,0.099-0.323,0.099
								h-0.559C1046.199,443.632,1046.124,443.596,1046.07,443.524z M1048.896,443.524c-0.055-0.072-0.07-0.162-0.045-0.271
								l0.396-2.52c0.048-0.348,0.216-0.522,0.504-0.522h1.151c0.084,0,0.154,0.03,0.207,0.09c0.055,0.061,0.082,0.133,0.082,0.217
								c0,0.12-0.019,0.216-0.055,0.288l-0.936,2.43c-0.061,0.132-0.126,0.231-0.198,0.297c-0.071,0.066-0.181,0.099-0.323,0.099
								h-0.559C1049.025,443.632,1048.95,443.596,1048.896,443.524z"/>
							<path fill="#1ABC9C" d="M1008.919,473.275c-0.065-0.078-0.099-0.171-0.099-0.279c0-0.083,0.023-0.161,0.072-0.233
								l2.771-3.853c-0.288,0.072-0.624,0.108-1.008,0.108c-0.864-0.012-1.62-0.213-2.268-0.603c-0.648-0.391-1.144-0.9-1.486-1.53
								c-0.342-0.63-0.512-1.305-0.512-2.025c0-0.72,0.17-1.403,0.512-2.052c0.343-0.648,0.853-1.176,1.531-1.584
								c0.678-0.408,1.496-0.612,2.457-0.612c0.959,0,1.781,0.198,2.465,0.595c0.685,0.396,1.2,0.915,1.549,1.557
								c0.348,0.642,0.521,1.329,0.521,2.061c0,0.66-0.117,1.242-0.351,1.746c-0.234,0.504-0.544,1.026-0.927,1.566l-3.492,4.896
								c-0.084,0.108-0.166,0.195-0.243,0.262c-0.078,0.065-0.188,0.099-0.333,0.099h-0.9
								C1009.072,473.393,1008.984,473.354,1008.919,473.275z M1012.312,467.255c0.432-0.229,0.773-0.549,1.025-0.963
								s0.378-0.892,0.378-1.432c0-0.552-0.126-1.037-0.378-1.458c-0.252-0.42-0.594-0.744-1.025-0.972
								c-0.433-0.228-0.906-0.342-1.422-0.342c-0.504,0-0.97,0.114-1.396,0.342c-0.427,0.228-0.765,0.552-1.017,0.972
								c-0.252,0.421-0.379,0.906-0.379,1.458c0,0.54,0.127,1.018,0.379,1.432s0.588,0.734,1.008,0.963
								c0.42,0.228,0.888,0.342,1.404,0.342C1011.406,467.597,1011.88,467.482,1012.312,467.255z"/>
							<path fill="#1ABC9C" d="M1021.006,473.275c-0.072-0.078-0.108-0.177-0.108-0.297v-10.152l-3.024,2.322
								c-0.084,0.072-0.174,0.108-0.27,0.108c-0.107,0-0.21-0.061-0.306-0.181l-0.433-0.558c-0.06-0.084-0.09-0.168-0.09-0.252
								c0-0.132,0.061-0.24,0.18-0.324l3.906-3.023c0.133-0.084,0.289-0.126,0.469-0.126h0.846c0.119,0,0.219,0.039,0.297,0.116
								c0.078,0.078,0.117,0.178,0.117,0.298v11.771c0,0.12-0.039,0.219-0.117,0.297s-0.178,0.117-0.297,0.117h-0.883
								C1021.174,473.393,1021.078,473.354,1021.006,473.275z"/>
							<path fill="#1ABC9C" d="M1025.316,473.275c-0.078-0.078-0.117-0.177-0.117-0.297v-1.242c0-0.119,0.039-0.222,0.117-0.306
								s0.178-0.126,0.297-0.126h1.242c0.12,0,0.219,0.042,0.297,0.126s0.117,0.187,0.117,0.306v1.242
								c0,0.12-0.039,0.219-0.117,0.297s-0.177,0.117-0.297,0.117h-1.242C1025.494,473.393,1025.395,473.354,1025.316,473.275z"/>
							<path fill="#1ABC9C" d="M1035.127,473.275c-0.078-0.078-0.117-0.177-0.117-0.297v-2.628h-5.85
								c-0.121,0-0.22-0.039-0.298-0.117s-0.116-0.177-0.116-0.297v-0.666c0-0.168,0.065-0.348,0.197-0.54l5.418-7.632
								c0.061-0.096,0.15-0.171,0.27-0.225c0.121-0.055,0.252-0.081,0.396-0.081h1.225c0.131,0,0.233,0.035,0.306,0.107
								c0.071,0.072,0.108,0.174,0.108,0.307v7.632h1.638c0.12,0,0.219,0.039,0.297,0.117c0.077,0.078,0.116,0.177,0.116,0.297
								v0.684c0,0.12-0.039,0.219-0.116,0.297c-0.078,0.078-0.177,0.117-0.297,0.117h-1.638v2.628c0,0.12-0.039,0.219-0.117,0.297
								s-0.178,0.117-0.297,0.117h-0.828C1035.303,473.393,1035.205,473.354,1035.127,473.275z M1030.617,468.875h4.41v-6.265
								L1030.617,468.875z"/>
							<path fill="#1ABC9C" d="M1045.827,472.483c-0.72-0.726-1.098-1.743-1.134-3.051l-0.018-0.72l0.018-0.721
								c0.036-1.308,0.414-2.324,1.134-3.051c0.72-0.726,1.722-1.089,3.007-1.089c0.863,0,1.592,0.153,2.186,0.459
								c0.595,0.306,1.039,0.688,1.332,1.143c0.295,0.457,0.453,0.912,0.478,1.368c0.013,0.108-0.026,0.204-0.116,0.288
								c-0.091,0.084-0.189,0.126-0.298,0.126h-0.792c-0.12,0-0.21-0.026-0.27-0.081c-0.061-0.054-0.12-0.152-0.18-0.297
								c-0.217-0.588-0.514-1.005-0.892-1.251s-0.854-0.369-1.431-0.369c-0.756,0-1.356,0.234-1.801,0.702
								c-0.443,0.468-0.684,1.183-0.72,2.143l-0.018,0.63l0.018,0.63c0.036,0.96,0.276,1.674,0.72,2.142
								c0.444,0.468,1.045,0.702,1.801,0.702c0.588,0,1.067-0.123,1.439-0.369s0.666-0.663,0.883-1.251
								c0.06-0.144,0.119-0.243,0.18-0.297c0.06-0.054,0.149-0.081,0.27-0.081h0.792c0.108,0,0.207,0.042,0.298,0.126
								c0.09,0.084,0.129,0.18,0.116,0.288c-0.024,0.444-0.183,0.895-0.478,1.35c-0.293,0.457-0.737,0.841-1.332,1.152
								c-0.594,0.312-1.322,0.468-2.186,0.468C1047.549,473.572,1046.547,473.21,1045.827,472.483z"/>
							<path fill="#1ABC9C" d="M1055.105,473.275c-0.078-0.078-0.116-0.177-0.116-0.297v-8.532c0-0.119,0.038-0.219,0.116-0.297
								s0.178-0.117,0.298-0.117h0.756c0.12,0,0.216,0.039,0.288,0.117s0.107,0.178,0.107,0.297v0.612
								c0.648-0.804,1.524-1.206,2.629-1.206c1.319,0,2.256,0.552,2.808,1.656c0.288-0.504,0.698-0.906,1.233-1.206
								c0.533-0.3,1.131-0.45,1.791-0.45c0.983,0,1.787,0.336,2.412,1.008c0.623,0.673,0.936,1.645,0.936,2.916v5.202
								c0,0.12-0.039,0.219-0.117,0.297s-0.178,0.117-0.297,0.117h-0.773c-0.121,0-0.22-0.039-0.298-0.117s-0.116-0.177-0.116-0.297
								v-5.04c0-0.96-0.199-1.646-0.595-2.061s-0.918-0.621-1.565-0.621c-0.576,0-1.071,0.213-1.485,0.639s-0.621,1.107-0.621,2.043
								v5.04c0,0.12-0.039,0.219-0.117,0.297s-0.177,0.117-0.297,0.117h-0.792c-0.12,0-0.219-0.039-0.297-0.117
								s-0.117-0.177-0.117-0.297v-5.04c0-0.947-0.207-1.632-0.621-2.052s-0.927-0.63-1.539-0.63c-0.576,0-1.07,0.21-1.484,0.63
								s-0.621,1.098-0.621,2.034v5.058c0,0.12-0.039,0.219-0.117,0.297s-0.178,0.117-0.297,0.117h-0.792
								C1055.283,473.393,1055.184,473.354,1055.105,473.275z"/>
							<path fill="#1ABC9C" d="M997.777,493.675c-0.078-0.078-0.117-0.177-0.117-0.297v-8.532c0-0.119,0.039-0.219,0.117-0.297
								s0.177-0.117,0.297-0.117h0.756c0.119,0,0.216,0.039,0.288,0.117c0.071,0.078,0.108,0.178,0.108,0.297v0.612
								c0.647-0.804,1.523-1.206,2.627-1.206c1.32,0,2.256,0.552,2.809,1.656c0.288-0.504,0.699-0.906,1.232-1.206
								c0.534-0.3,1.131-0.45,1.791-0.45c0.984,0,1.789,0.336,2.412,1.008c0.624,0.673,0.937,1.645,0.937,2.916v5.202
								c0,0.12-0.039,0.219-0.117,0.297s-0.177,0.117-0.297,0.117h-0.774c-0.119,0-0.219-0.039-0.297-0.117
								s-0.117-0.177-0.117-0.297v-5.04c0-0.96-0.197-1.646-0.594-2.061s-0.918-0.621-1.566-0.621c-0.575,0-1.07,0.213-1.484,0.639
								s-0.621,1.107-0.621,2.043v5.04c0,0.12-0.039,0.219-0.117,0.297s-0.177,0.117-0.297,0.117h-0.792
								c-0.12,0-0.22-0.039-0.297-0.117c-0.078-0.078-0.117-0.177-0.117-0.297v-5.04c0-0.947-0.207-1.632-0.62-2.052
								c-0.414-0.42-0.928-0.63-1.539-0.63c-0.576,0-1.072,0.21-1.486,0.63s-0.62,1.098-0.62,2.034v5.058
								c0,0.12-0.04,0.219-0.117,0.297c-0.078,0.078-0.177,0.117-0.297,0.117h-0.792
								C997.954,493.792,997.855,493.753,997.777,493.675z"/>
							<path fill="#1ABC9C" d="M1013.617,482.551c-0.078-0.078-0.117-0.177-0.117-0.297v-0.936c0-0.12,0.039-0.223,0.117-0.307
								s0.177-0.126,0.297-0.126h1.062c0.119,0,0.221,0.042,0.305,0.126s0.127,0.187,0.127,0.307v0.936
								c0,0.12-0.043,0.219-0.127,0.297s-0.186,0.117-0.305,0.117h-1.062C1013.794,482.668,1013.695,482.629,1013.617,482.551z
								 M1013.761,493.675c-0.078-0.078-0.116-0.177-0.116-0.297v-8.532c0-0.119,0.038-0.219,0.116-0.297s0.177-0.117,0.298-0.117
								h0.791c0.12,0,0.219,0.039,0.297,0.117s0.117,0.178,0.117,0.297v8.532c0,0.12-0.039,0.219-0.117,0.297
								s-0.177,0.117-0.297,0.117h-0.791C1013.938,493.792,1013.839,493.753,1013.761,493.675z"/>
							<path fill="#1ABC9C" d="M1018.08,493.675c-0.078-0.078-0.116-0.177-0.116-0.297v-8.532c0-0.119,0.038-0.219,0.116-0.297
								s0.178-0.117,0.298-0.117h0.774c0.131,0,0.233,0.036,0.306,0.108c0.071,0.072,0.108,0.174,0.108,0.306v0.792
								c0.359-0.443,0.776-0.785,1.25-1.025c0.475-0.24,1.064-0.36,1.773-0.36c1.152,0,2.046,0.369,2.682,1.107
								c0.637,0.737,0.954,1.713,0.954,2.925v5.094c0,0.12-0.039,0.219-0.116,0.297c-0.078,0.078-0.178,0.117-0.297,0.117h-0.828
								c-0.121,0-0.22-0.039-0.297-0.117c-0.079-0.078-0.117-0.177-0.117-0.297v-4.986c0-0.863-0.211-1.535-0.631-2.016
								c-0.42-0.479-1.02-0.72-1.8-0.72c-0.769,0-1.38,0.243-1.836,0.729c-0.456,0.486-0.685,1.155-0.685,2.007v4.986
								c0,0.12-0.039,0.219-0.116,0.297c-0.078,0.078-0.177,0.117-0.298,0.117h-0.827
								C1018.258,493.792,1018.158,493.753,1018.08,493.675z"/>
							<path fill="#1ABC9C" d="M1028.809,482.551c-0.078-0.078-0.117-0.177-0.117-0.297v-0.936c0-0.12,0.039-0.223,0.117-0.307
								s0.177-0.126,0.297-0.126h1.062c0.119,0,0.221,0.042,0.305,0.126s0.127,0.187,0.127,0.307v0.936
								c0,0.12-0.043,0.219-0.127,0.297s-0.186,0.117-0.305,0.117h-1.062C1028.985,482.668,1028.887,482.629,1028.809,482.551z
								 M1028.952,493.675c-0.078-0.078-0.116-0.177-0.116-0.297v-8.532c0-0.119,0.038-0.219,0.116-0.297s0.177-0.117,0.298-0.117
								h0.791c0.12,0,0.219,0.039,0.297,0.117s0.117,0.178,0.117,0.297v8.532c0,0.12-0.039,0.219-0.117,0.297
								s-0.177,0.117-0.297,0.117h-0.791C1029.129,493.792,1029.03,493.753,1028.952,493.675z"/>
							<path fill="#1ABC9C" d="M1033.271,493.675c-0.078-0.078-0.116-0.177-0.116-0.297v-8.532c0-0.119,0.038-0.219,0.116-0.297
								s0.178-0.117,0.298-0.117h0.756c0.12,0,0.216,0.039,0.288,0.117s0.107,0.178,0.107,0.297v0.612
								c0.648-0.804,1.524-1.206,2.629-1.206c1.319,0,2.256,0.552,2.808,1.656c0.288-0.504,0.698-0.906,1.233-1.206
								c0.533-0.3,1.131-0.45,1.791-0.45c0.983,0,1.787,0.336,2.412,1.008c0.623,0.673,0.936,1.645,0.936,2.916v5.202
								c0,0.12-0.039,0.219-0.117,0.297s-0.178,0.117-0.297,0.117h-0.773c-0.121,0-0.22-0.039-0.298-0.117s-0.116-0.177-0.116-0.297
								v-5.04c0-0.96-0.199-1.646-0.595-2.061s-0.918-0.621-1.565-0.621c-0.576,0-1.071,0.213-1.485,0.639s-0.621,1.107-0.621,2.043
								v5.04c0,0.12-0.039,0.219-0.117,0.297s-0.177,0.117-0.297,0.117h-0.792c-0.12,0-0.219-0.039-0.297-0.117
								s-0.117-0.177-0.117-0.297v-5.04c0-0.947-0.207-1.632-0.621-2.052s-0.927-0.63-1.539-0.63c-0.576,0-1.07,0.21-1.484,0.63
								s-0.621,1.098-0.621,2.034v5.058c0,0.12-0.039,0.219-0.117,0.297s-0.178,0.117-0.297,0.117h-0.792
								C1033.449,493.792,1033.35,493.753,1033.271,493.675z"/>
							<path fill="#1ABC9C" d="M1049.984,492.865c-0.623-0.738-0.936-1.72-0.936-2.943v-5.076c0-0.119,0.039-0.219,0.117-0.297
								s0.177-0.117,0.297-0.117h0.828c0.119,0,0.219,0.039,0.297,0.117s0.117,0.178,0.117,0.297v4.986
								c0,1.824,0.792,2.736,2.376,2.736c0.768,0,1.377-0.243,1.827-0.729c0.449-0.486,0.675-1.154,0.675-2.007v-4.986
								c0-0.119,0.039-0.219,0.117-0.297c0.077-0.078,0.177-0.117,0.297-0.117h0.828c0.12,0,0.219,0.039,0.297,0.117
								s0.117,0.178,0.117,0.297v8.532c0,0.12-0.039,0.219-0.117,0.297s-0.177,0.117-0.297,0.117h-0.774
								c-0.119,0-0.219-0.039-0.297-0.117s-0.117-0.177-0.117-0.297v-0.81c-0.348,0.468-0.756,0.818-1.224,1.053
								s-1.062,0.351-1.782,0.351C1051.49,493.972,1050.609,493.603,1049.984,492.865z"/>
							<path fill="#1ABC9C" d="M1060.056,493.675c-0.078-0.078-0.116-0.177-0.116-0.297v-8.532c0-0.119,0.038-0.219,0.116-0.297
								s0.177-0.117,0.298-0.117h0.756c0.119,0,0.215,0.039,0.287,0.117s0.108,0.178,0.108,0.297v0.612
								c0.647-0.804,1.524-1.206,2.628-1.206c1.32,0,2.256,0.552,2.809,1.656c0.287-0.504,0.698-0.906,1.232-1.206
								c0.533-0.3,1.131-0.45,1.791-0.45c0.984,0,1.788,0.336,2.412,1.008c0.623,0.673,0.936,1.645,0.936,2.916v5.202
								c0,0.12-0.039,0.219-0.117,0.297s-0.177,0.117-0.297,0.117h-0.773c-0.12,0-0.219-0.039-0.297-0.117s-0.117-0.177-0.117-0.297
								v-5.04c0-0.96-0.198-1.646-0.594-2.061c-0.396-0.414-0.918-0.621-1.566-0.621c-0.576,0-1.07,0.213-1.484,0.639
								s-0.621,1.107-0.621,2.043v5.04c0,0.12-0.039,0.219-0.117,0.297s-0.178,0.117-0.297,0.117h-0.793
								c-0.119,0-0.219-0.039-0.297-0.117s-0.117-0.177-0.117-0.297v-5.04c0-0.947-0.207-1.632-0.62-2.052
								c-0.414-0.42-0.927-0.63-1.539-0.63c-0.576,0-1.071,0.21-1.485,0.63s-0.621,1.098-0.621,2.034v5.058
								c0,0.12-0.039,0.219-0.117,0.297s-0.177,0.117-0.297,0.117h-0.791C1060.232,493.792,1060.134,493.753,1060.056,493.675z"/>
						</g>
					</g>
				</g>
			</g>
		</g>
	</g>
</g>
<g id="AG-DIAGRAM">
	<g id="POLYLINE_1059_">
		<g>
			<g>
				
					<line fill="none" stroke="#1ABC9C" stroke-width="3" stroke-linecap="round" stroke-linejoin="round" x1="1128.413" y1="202.403" x2="1129.456" y2="200.696"/>
				
					<polyline fill="none" stroke="#1ABC9C" stroke-width="3" stroke-linecap="round" stroke-linejoin="round" stroke-dasharray="4.1388,7.2429" points="
					1133.233,194.516 1163.987,144.191 1196.63,90.775 				"/>
				
					<line fill="none" stroke="#1ABC9C" stroke-width="3" stroke-linecap="round" stroke-linejoin="round" x1="1198.518" y1="87.685" x2="1199.561" y2="85.979"/>
			</g>
		</g>
	</g>
	<g id="POLYLINE_1058_">
		<g>
			<g>
				
					<line fill="none" stroke="#1ABC9C" stroke-width="3" stroke-linecap="round" stroke-linejoin="round" x1="717.415" y1="465.696" x2="715.415" y2="465.696"/>
				
					<line fill="none" stroke="#1ABC9C" stroke-width="3" stroke-linecap="round" stroke-linejoin="round" stroke-dasharray="3.9183,6.8571" x1="708.558" y1="465.696" x2="528.804" y2="465.696"/>
				
					<line fill="none" stroke="#1ABC9C" stroke-width="3" stroke-linecap="round" stroke-linejoin="round" x1="525.376" y1="465.696" x2="523.376" y2="465.696"/>
			</g>
		</g>
	</g>
	<g id="POLYLINE_1057_">
		<g>
			<g>
				
					<line fill="none" stroke="#1ABC9C" stroke-width="3" stroke-linecap="round" stroke-linejoin="round" x1="452.76" y1="465.696" x2="450.76" y2="465.696"/>
				
					<line fill="none" stroke="#1ABC9C" stroke-width="3" stroke-linecap="round" stroke-linejoin="round" stroke-dasharray="3.8436,6.7262" x1="444.033" y1="465.696" x2="341.699" y2="465.696"/>
				
					<line fill="none" stroke="#1ABC9C" stroke-width="3" stroke-linecap="round" stroke-linejoin="round" x1="338.336" y1="465.696" x2="336.336" y2="465.696"/>
			</g>
		</g>
	</g>
	<g id="POLYLINE_1056_">
		<g>
			<g>
				
					<line fill="none" stroke="#1ABC9C" stroke-width="3" stroke-linecap="round" stroke-linejoin="round" x1="491.568" y1="77.616" x2="489.568" y2="77.616"/>
				
					<line fill="none" stroke="#1ABC9C" stroke-width="3" stroke-linecap="round" stroke-linejoin="round" stroke-dasharray="3.9183,6.8571" x1="482.711" y1="77.616" x2="302.956" y2="77.616"/>
				
					<line fill="none" stroke="#1ABC9C" stroke-width="3" stroke-linecap="round" stroke-linejoin="round" x1="299.528" y1="77.616" x2="297.528" y2="77.616"/>
			</g>
		</g>
	</g>
</g>
<g id="AG-DETAIL-DIAGRAM">
	<g id="POLYLINE_1055_">
		<g>
			<g>
				<polyline fill="none" stroke="#1ABC9C" stroke-width="2" stroke-linecap="round" stroke-linejoin="round" points="
					1350.059,425.548 1351.559,425.548 1351.559,424.048 				"/>
				
					<line fill="none" stroke="#1ABC9C" stroke-width="2" stroke-linecap="round" stroke-linejoin="round" stroke-dasharray="2.9083,4.8472" x1="1351.559" y1="419.201" x2="1351.559" y2="313.048"/>
				<polyline fill="none" stroke="#1ABC9C" stroke-width="2" stroke-linecap="round" stroke-linejoin="round" points="
					1351.559,310.625 1351.559,309.125 1350.059,309.125 				"/>
				
					<line fill="none" stroke="#1ABC9C" stroke-width="2" stroke-linecap="round" stroke-linejoin="round" stroke-dasharray="2.9083,4.8472" x1="1345.212" y1="309.125" x2="1239.059" y2="309.125"/>
				<polyline fill="none" stroke="#1ABC9C" stroke-width="2" stroke-linecap="round" stroke-linejoin="round" points="
					1236.635,309.125 1235.135,309.125 1235.135,310.625 				"/>
				
					<line fill="none" stroke="#1ABC9C" stroke-width="2" stroke-linecap="round" stroke-linejoin="round" stroke-dasharray="2.9083,4.8472" x1="1235.135" y1="315.472" x2="1235.135" y2="421.625"/>
				<polyline fill="none" stroke="#1ABC9C" stroke-width="2" stroke-linecap="round" stroke-linejoin="round" points="
					1235.135,424.048 1235.135,425.548 1236.635,425.548 				"/>
				
					<line fill="none" stroke="#1ABC9C" stroke-width="2" stroke-linecap="round" stroke-linejoin="round" stroke-dasharray="2.9083,4.8472" x1="1241.482" y1="425.548" x2="1347.635" y2="425.548"/>
			</g>
		</g>
	</g>
	<g id="POLYLINE_1054_">
		<g>
			<g>
				
					<line fill="none" stroke="#1ABC9C" stroke-width="2" stroke-linecap="round" stroke-linejoin="round" x1="1163.987" y1="144.191" x2="1165.487" y2="144.191"/>
				
					<line fill="none" stroke="#1ABC9C" stroke-width="2" stroke-linecap="round" stroke-linejoin="round" stroke-dasharray="3.0326,5.0544" x1="1170.541" y1="144.191" x2="1289.32" y2="144.191"/>
				<polyline fill="none" stroke="#1ABC9C" stroke-width="2" stroke-linecap="round" stroke-linejoin="round" points="
					1291.847,144.191 1293.347,144.191 1293.347,145.691 				"/>
				
					<line fill="none" stroke="#1ABC9C" stroke-width="2" stroke-linecap="round" stroke-linejoin="round" stroke-dasharray="2.9443,4.9071" x1="1293.347" y1="150.598" x2="1293.347" y2="305.171"/>
				
					<line fill="none" stroke="#1ABC9C" stroke-width="2" stroke-linecap="round" stroke-linejoin="round" x1="1293.347" y1="307.625" x2="1293.347" y2="309.125"/>
			</g>
		</g>
	</g>
	<g id="POLYLINE_1053_">
		<g>
			<g>
				
					<line fill="none" stroke="#1ABC9C" stroke-width="2" stroke-linecap="round" stroke-linejoin="round" x1="1306.283" y1="296.188" x2="1305.222" y2="297.249"/>
				
					<line fill="none" stroke="#1ABC9C" stroke-width="2" stroke-linecap="round" stroke-linejoin="round" stroke-dasharray="3.5294,5.8824" x1="1301.063" y1="301.409" x2="1296.487" y2="305.984"/>
				<polyline fill="none" stroke="#1ABC9C" stroke-width="2" stroke-linecap="round" stroke-linejoin="round" points="
					1294.408,308.064 1293.347,309.125 1292.286,308.064 				"/>
				
					<line fill="none" stroke="#1ABC9C" stroke-width="2" stroke-linecap="round" stroke-linejoin="round" stroke-dasharray="3.5294,5.8824" x1="1288.127" y1="303.904" x2="1283.551" y2="299.329"/>
				
					<line fill="none" stroke="#1ABC9C" stroke-width="2" stroke-linecap="round" stroke-linejoin="round" x1="1281.472" y1="297.249" x2="1280.411" y2="296.188"/>
			</g>
		</g>
	</g>
	<g id="POLYLINE_1052_">
		<g>
			<g>
				
					<line fill="none" stroke="#1ABC9C" stroke-width="2" stroke-linecap="round" stroke-linejoin="round" x1="1163.987" y1="202.403" x2="1163.987" y2="200.903"/>
				
					<line fill="none" stroke="#1ABC9C" stroke-width="2" stroke-linecap="round" stroke-linejoin="round" stroke-dasharray="3.1252,5.2087" x1="1163.987" y1="195.694" x2="1163.987" y2="148.295"/>
				
					<line fill="none" stroke="#1ABC9C" stroke-width="2" stroke-linecap="round" stroke-linejoin="round" x1="1163.987" y1="145.691" x2="1163.987" y2="144.191"/>
			</g>
		</g>
	</g>
	<g id="POLYLINE_1051_">
		<g>
			<g>
				
					<line fill="none" stroke="#1ABC9C" stroke-width="2" stroke-linecap="round" stroke-linejoin="round" x1="1128.413" y1="202.403" x2="1129.913" y2="202.403"/>
				
					<line fill="none" stroke="#1ABC9C" stroke-width="2" stroke-linecap="round" stroke-linejoin="round" stroke-dasharray="3.0808,5.1347" x1="1135.048" y1="202.403" x2="1231.068" y2="202.403"/>
				<polyline fill="none" stroke="#1ABC9C" stroke-width="2" stroke-linecap="round" stroke-linejoin="round" points="
					1233.635,202.403 1235.135,202.403 1235.135,200.903 				"/>
				
					<line fill="none" stroke="#1ABC9C" stroke-width="2" stroke-linecap="round" stroke-linejoin="round" stroke-dasharray="2.9083,4.8472" x1="1235.135" y1="196.055" x2="1235.135" y2="89.902"/>
				<polyline fill="none" stroke="#1ABC9C" stroke-width="2" stroke-linecap="round" stroke-linejoin="round" points="
					1235.135,87.479 1235.135,85.979 1233.635,85.979 				"/>
				
					<line fill="none" stroke="#1ABC9C" stroke-width="2" stroke-linecap="round" stroke-linejoin="round" stroke-dasharray="3.3697,5.6162" x1="1228.019" y1="85.979" x2="1203.869" y2="85.979"/>
				
					<line fill="none" stroke="#1ABC9C" stroke-width="2" stroke-linecap="round" stroke-linejoin="round" x1="1201.061" y1="85.979" x2="1199.561" y2="85.979"/>
			</g>
		</g>
	</g>
	<g id="POLYLINE_1050_">
		<g>
			<g>
				<polyline fill="none" stroke="#1ABC9C" stroke-width="2" stroke-linecap="round" stroke-linejoin="round" points="
					1236.635,273.551 1235.135,273.551 1235.135,275.051 				"/>
				
					<line fill="none" stroke="#1ABC9C" stroke-width="2" stroke-linecap="round" stroke-linejoin="round" stroke-dasharray="3.3697,5.6162" x1="1235.135" y1="280.667" x2="1235.135" y2="304.816"/>
				<polyline fill="none" stroke="#1ABC9C" stroke-width="2" stroke-linecap="round" stroke-linejoin="round" points="
					1235.135,307.625 1235.135,309.125 1236.635,309.125 				"/>
				
					<line fill="none" stroke="#1ABC9C" stroke-width="2" stroke-linecap="round" stroke-linejoin="round" stroke-dasharray="2.9083,4.8472" x1="1241.482" y1="309.125" x2="1347.635" y2="309.125"/>
				<polyline fill="none" stroke="#1ABC9C" stroke-width="2" stroke-linecap="round" stroke-linejoin="round" points="
					1350.059,309.125 1351.559,309.125 1351.559,307.625 				"/>
				
					<line fill="none" stroke="#1ABC9C" stroke-width="2" stroke-linecap="round" stroke-linejoin="round" stroke-dasharray="3.3697,5.6162" x1="1351.559" y1="302.008" x2="1351.559" y2="277.859"/>
				<polyline fill="none" stroke="#1ABC9C" stroke-width="2" stroke-linecap="round" stroke-linejoin="round" points="
					1351.559,275.051 1351.559,273.551 1350.059,273.551 				"/>
				
					<line fill="none" stroke="#1ABC9C" stroke-width="2" stroke-linecap="round" stroke-linejoin="round" stroke-dasharray="2.9083,4.8472" x1="1345.212" y1="273.551" x2="1239.059" y2="273.551"/>
			</g>
		</g>
	</g>
	<g id="POLYLINE_1049_">
		<g>
			<g>
				<polyline fill="none" stroke="#1ABC9C" stroke-width="2" stroke-linecap="round" stroke-linejoin="round" points="
					1236.635,237.977 1235.135,237.977 1235.135,239.477 				"/>
				
					<line fill="none" stroke="#1ABC9C" stroke-width="2" stroke-linecap="round" stroke-linejoin="round" stroke-dasharray="3.3697,5.6162" x1="1235.135" y1="245.093" x2="1235.135" y2="269.242"/>
				<polyline fill="none" stroke="#1ABC9C" stroke-width="2" stroke-linecap="round" stroke-linejoin="round" points="
					1235.135,272.051 1235.135,273.551 1236.635,273.551 				"/>
				
					<line fill="none" stroke="#1ABC9C" stroke-width="2" stroke-linecap="round" stroke-linejoin="round" stroke-dasharray="2.9083,4.8472" x1="1241.482" y1="273.551" x2="1347.635" y2="273.551"/>
				<polyline fill="none" stroke="#1ABC9C" stroke-width="2" stroke-linecap="round" stroke-linejoin="round" points="
					1350.059,273.551 1351.559,273.551 1351.559,272.051 				"/>
				
					<line fill="none" stroke="#1ABC9C" stroke-width="2" stroke-linecap="round" stroke-linejoin="round" stroke-dasharray="3.3697,5.6162" x1="1351.559" y1="266.434" x2="1351.559" y2="242.285"/>
				<polyline fill="none" stroke="#1ABC9C" stroke-width="2" stroke-linecap="round" stroke-linejoin="round" points="
					1351.559,239.477 1351.559,237.977 1350.059,237.977 				"/>
				
					<line fill="none" stroke="#1ABC9C" stroke-width="2" stroke-linecap="round" stroke-linejoin="round" stroke-dasharray="2.9083,4.8472" x1="1345.212" y1="237.977" x2="1239.059" y2="237.977"/>
			</g>
		</g>
	</g>
	<g id="POLYLINE_1048_">
		<g>
			<g>
				<polyline fill="none" stroke="#1ABC9C" stroke-width="2" stroke-linecap="round" stroke-linejoin="round" points="
					1236.635,202.403 1235.135,202.403 1235.135,203.903 				"/>
				
					<line fill="none" stroke="#1ABC9C" stroke-width="2" stroke-linecap="round" stroke-linejoin="round" stroke-dasharray="3.3697,5.6162" x1="1235.135" y1="209.519" x2="1235.135" y2="233.668"/>
				<polyline fill="none" stroke="#1ABC9C" stroke-width="2" stroke-linecap="round" stroke-linejoin="round" points="
					1235.135,236.477 1235.135,237.977 1236.635,237.977 				"/>
				
					<line fill="none" stroke="#1ABC9C" stroke-width="2" stroke-linecap="round" stroke-linejoin="round" stroke-dasharray="2.9083,4.8472" x1="1241.482" y1="237.977" x2="1347.635" y2="237.977"/>
				<polyline fill="none" stroke="#1ABC9C" stroke-width="2" stroke-linecap="round" stroke-linejoin="round" points="
					1350.059,237.977 1351.559,237.977 1351.559,236.477 				"/>
				
					<line fill="none" stroke="#1ABC9C" stroke-width="2" stroke-linecap="round" stroke-linejoin="round" stroke-dasharray="3.3697,5.6162" x1="1351.559" y1="230.86" x2="1351.559" y2="206.711"/>
				<polyline fill="none" stroke="#1ABC9C" stroke-width="2" stroke-linecap="round" stroke-linejoin="round" points="
					1351.559,203.903 1351.559,202.403 1350.059,202.403 				"/>
				
					<line fill="none" stroke="#1ABC9C" stroke-width="2" stroke-linecap="round" stroke-linejoin="round" stroke-dasharray="2.9083,4.8472" x1="1345.212" y1="202.403" x2="1239.059" y2="202.403"/>
			</g>
		</g>
	</g>
	<g id="POLYLINE_1047_">
		<g>
			<g>
				<polyline fill="none" stroke="#1ABC9C" stroke-width="2" stroke-linecap="round" stroke-linejoin="round" points="
					1350.059,202.403 1351.559,202.403 1351.559,200.903 				"/>
				
					<line fill="none" stroke="#1ABC9C" stroke-width="2" stroke-linecap="round" stroke-linejoin="round" stroke-dasharray="2.9083,4.8472" x1="1351.559" y1="196.055" x2="1351.559" y2="89.902"/>
				<polyline fill="none" stroke="#1ABC9C" stroke-width="2" stroke-linecap="round" stroke-linejoin="round" points="
					1351.559,87.479 1351.559,85.979 1350.059,85.979 				"/>
				
					<line fill="none" stroke="#1ABC9C" stroke-width="2" stroke-linecap="round" stroke-linejoin="round" stroke-dasharray="2.9083,4.8472" x1="1345.212" y1="85.979" x2="1239.059" y2="85.979"/>
				<polyline fill="none" stroke="#1ABC9C" stroke-width="2" stroke-linecap="round" stroke-linejoin="round" points="
					1236.635,85.979 1235.135,85.979 1235.135,87.479 				"/>
				
					<line fill="none" stroke="#1ABC9C" stroke-width="2" stroke-linecap="round" stroke-linejoin="round" stroke-dasharray="2.9083,4.8472" x1="1235.135" y1="92.326" x2="1235.135" y2="198.479"/>
				<polyline fill="none" stroke="#1ABC9C" stroke-width="2" stroke-linecap="round" stroke-linejoin="round" points="
					1235.135,200.903 1235.135,202.403 1236.635,202.403 				"/>
				
					<line fill="none" stroke="#1ABC9C" stroke-width="2" stroke-linecap="round" stroke-linejoin="round" stroke-dasharray="2.9083,4.8472" x1="1241.482" y1="202.403" x2="1347.635" y2="202.403"/>
			</g>
		</g>
	</g>
	<g id="POLYLINE_1046_">
		<g>
			<g>
				
					<line fill="none" stroke="#1ABC9C" stroke-width="2" stroke-linecap="round" stroke-linejoin="round" x1="1199.561" y1="202.403" x2="1199.561" y2="200.903"/>
				
					<line fill="none" stroke="#1ABC9C" stroke-width="2" stroke-linecap="round" stroke-linejoin="round" stroke-dasharray="2.9083,4.8472" x1="1199.561" y1="196.055" x2="1199.561" y2="89.902"/>
				
					<line fill="none" stroke="#1ABC9C" stroke-width="2" stroke-linecap="round" stroke-linejoin="round" x1="1199.561" y1="87.479" x2="1199.561" y2="85.979"/>
			</g>
		</g>
	</g>
	<g id="POLYLINE_1045_">
		<g>
			<g>
				
					<line fill="none" stroke="#1ABC9C" stroke-width="2" stroke-linecap="round" stroke-linejoin="round" x1="785.329" y1="214.585" x2="786.829" y2="214.585"/>
				
					<line fill="none" stroke="#1ABC9C" stroke-width="2" stroke-linecap="round" stroke-linejoin="round" stroke-dasharray="2.9083,4.8472" x1="791.677" y1="214.585" x2="897.83" y2="214.585"/>
				
					<line fill="none" stroke="#1ABC9C" stroke-width="2" stroke-linecap="round" stroke-linejoin="round" x1="900.253" y1="214.585" x2="901.753" y2="214.585"/>
			</g>
		</g>
	</g>
	<g id="POLYLINE_1044_">
		<g>
			<g>
				
					<line fill="none" stroke="#1ABC9C" stroke-width="2" stroke-linecap="round" stroke-linejoin="round" x1="785.329" y1="237.413" x2="786.829" y2="237.413"/>
				
					<line fill="none" stroke="#1ABC9C" stroke-width="2" stroke-linecap="round" stroke-linejoin="round" stroke-dasharray="2.9083,4.8472" x1="791.677" y1="237.413" x2="897.83" y2="237.413"/>
				
					<line fill="none" stroke="#1ABC9C" stroke-width="2" stroke-linecap="round" stroke-linejoin="round" x1="900.253" y1="237.413" x2="901.753" y2="237.413"/>
			</g>
		</g>
	</g>
	<g id="POLYLINE_1043_">
		<g>
			<g>
				
					<line fill="none" stroke="#1ABC9C" stroke-width="2" stroke-linecap="round" stroke-linejoin="round" x1="785.329" y1="260.242" x2="786.829" y2="260.242"/>
				
					<line fill="none" stroke="#1ABC9C" stroke-width="2" stroke-linecap="round" stroke-linejoin="round" stroke-dasharray="2.9083,4.8472" x1="791.677" y1="260.242" x2="897.83" y2="260.242"/>
				
					<line fill="none" stroke="#1ABC9C" stroke-width="2" stroke-linecap="round" stroke-linejoin="round" x1="900.253" y1="260.242" x2="901.753" y2="260.242"/>
			</g>
		</g>
	</g>
	<g id="POLYLINE_1042_">
		<g>
			<g>
				
					<line fill="none" stroke="#1ABC9C" stroke-width="2" stroke-linecap="round" stroke-linejoin="round" x1="336.336" y1="146.101" x2="337.836" y2="146.101"/>
				
					<line fill="none" stroke="#1ABC9C" stroke-width="2" stroke-linecap="round" stroke-linejoin="round" stroke-dasharray="2.9083,4.8472" x1="342.683" y1="146.101" x2="448.836" y2="146.101"/>
				
					<line fill="none" stroke="#1ABC9C" stroke-width="2" stroke-linecap="round" stroke-linejoin="round" x1="451.26" y1="146.101" x2="452.76" y2="146.101"/>
			</g>
		</g>
	</g>
	<g id="POLYLINE_1041_">
		<g>
			<g>
				
					<line fill="none" stroke="#1ABC9C" stroke-width="2" stroke-linecap="round" stroke-linejoin="round" x1="336.336" y1="123.272" x2="337.836" y2="123.272"/>
				
					<line fill="none" stroke="#1ABC9C" stroke-width="2" stroke-linecap="round" stroke-linejoin="round" stroke-dasharray="2.9083,4.8472" x1="342.683" y1="123.272" x2="448.836" y2="123.272"/>
				
					<line fill="none" stroke="#1ABC9C" stroke-width="2" stroke-linecap="round" stroke-linejoin="round" x1="451.26" y1="123.272" x2="452.76" y2="123.272"/>
			</g>
		</g>
	</g>
</g>
<g id="AG-DETAILS">
	<g id="POLYLINE_1025_">
		<g>
			<g>
				
					<line fill="none" stroke="#1ABC9C" stroke-width="2" stroke-linecap="round" stroke-linejoin="round" x1="1225.433" y1="367.336" x2="1223.933" y2="367.336"/>
				
					<line fill="none" stroke="#1ABC9C" stroke-width="2" stroke-linecap="round" stroke-linejoin="round" stroke-dasharray="2.981,4.9684" x1="1218.965" y1="367.336" x2="1038.611" y2="367.336"/>
				<polyline fill="none" stroke="#1ABC9C" stroke-width="2" stroke-linecap="round" stroke-linejoin="round" points="
					1036.127,367.336 1034.627,367.336 1034.627,365.836 				"/>
				
					<line fill="none" stroke="#1ABC9C" stroke-width="2" stroke-linecap="round" stroke-linejoin="round" stroke-dasharray="2.9884,4.9807" x1="1034.627" y1="360.856" x2="1034.627" y2="148.181"/>
				<polyline fill="none" stroke="#1ABC9C" stroke-width="2" stroke-linecap="round" stroke-linejoin="round" points="
					1034.627,145.691 1034.627,144.191 1036.127,144.191 				"/>
				
					<line fill="none" stroke="#1ABC9C" stroke-width="2" stroke-linecap="round" stroke-linejoin="round" stroke-dasharray="3.0326,5.0544" x1="1041.182" y1="144.191" x2="1159.96" y2="144.191"/>
				
					<line fill="none" stroke="#1ABC9C" stroke-width="2" stroke-linecap="round" stroke-linejoin="round" x1="1162.487" y1="144.191" x2="1163.987" y2="144.191"/>
			</g>
		</g>
	</g>
	<g id="POLYLINE_1024_">
		<path fill="none" stroke="#1ABC9C" stroke-width="2" stroke-linecap="round" stroke-linejoin="round" stroke-miterlimit="10" d="
			M1235.135,357.634c4.054,0.009,7.766,2.611,9.134,6.432c1.366,3.815,0.155,8.196-2.977,10.768s-7.665,2.907-11.141,0.825
			c-3.477-2.082-5.321-6.236-4.532-10.211c0.785-3.959,4.054-7.091,8.045-7.702C1234.15,357.672,1234.642,357.635,1235.135,357.634z
			"/>
	</g>
	<g id="POLYLINE_1023_">
		
			<polygon fill="none" stroke="#1ABC9C" stroke-width="2" stroke-linecap="round" stroke-linejoin="round" stroke-miterlimit="10" points="
			901.753,237.413 901.753,214.585 901.753,191.757 785.329,191.757 785.329,214.585 785.329,237.413 785.329,260.242 
			785.329,283.07 901.753,283.07 901.753,260.242 		"/>
	</g>
	<g id="POLYLINE_1022_">
		
			<polyline fill="none" stroke="#1ABC9C" stroke-width="2" stroke-linecap="round" stroke-linejoin="round" stroke-miterlimit="10" points="
			678.607,351.555 678.607,328.726 714.181,328.726 714.181,305.898 749.755,305.898 		"/>
	</g>
	<g id="POLYLINE_1021_">
		
			<line fill="none" stroke="#1ABC9C" stroke-width="2" stroke-linecap="round" stroke-linejoin="round" stroke-miterlimit="10" x1="678.607" y1="374.383" x2="820.903" y2="283.07"/>
	</g>
	<g id="POLYLINE_1020_">
		
			<polyline fill="none" stroke="#1ABC9C" stroke-width="2" stroke-linecap="round" stroke-linejoin="round" stroke-miterlimit="10" points="
			749.755,305.898 749.755,283.07 785.329,283.07 		"/>
	</g>
	<g id="POLYLINE_1019_">
		
			<line fill="none" stroke="#1ABC9C" stroke-width="2" stroke-linecap="round" stroke-linejoin="round" stroke-miterlimit="10" x1="194.04" y1="283.07" x2="371.91" y2="168.929"/>
	</g>
	<g id="POLYLINE_1018_">
		
			<polyline fill="none" stroke="#1ABC9C" stroke-width="2" stroke-linecap="round" stroke-linejoin="round" stroke-miterlimit="10" points="
			194.04,260.242 194.04,237.413 229.614,237.413 229.614,214.585 265.188,214.585 265.188,191.757 300.762,191.757 
			300.762,168.929 336.336,168.929 		"/>
	</g>
	<g id="POLYLINE_1017_">
		
			<rect x="77.616" y="260.242" fill="none" stroke="#1ABC9C" stroke-width="2" stroke-linecap="round" stroke-linejoin="round" stroke-miterlimit="10" width="116.424" height="22.828"/>
	</g>
	<g id="POLYLINE_1016_">
		
			<rect x="77.616" y="283.07" fill="none" stroke="#1ABC9C" stroke-width="2" stroke-linecap="round" stroke-linejoin="round" stroke-miterlimit="10" width="116.424" height="22.828"/>
	</g>
	<g id="POLYLINE_1015_">
		
			<rect x="77.616" y="305.898" fill="none" stroke="#1ABC9C" stroke-width="2" stroke-linecap="round" stroke-linejoin="round" stroke-miterlimit="10" width="116.424" height="22.828"/>
	</g>
	<g id="POLYLINE_1014_">
		
			<rect x="77.616" y="328.726" fill="none" stroke="#1ABC9C" stroke-width="2" stroke-linecap="round" stroke-linejoin="round" stroke-miterlimit="10" width="116.424" height="22.828"/>
	</g>
</g>
<g id="AG-PEOPLE">
</g>
<g id="AG-BUILDINGS">
	<g id="POLYLINE_1013_">
		
			<line fill="none" stroke="#1ABC9C" stroke-width="2.5" stroke-linecap="round" stroke-linejoin="round" stroke-miterlimit="10" x1="1163.987" y1="144.191" x2="1163.987" y2="85.979"/>
	</g>
	<g id="POLYLINE_1012_">
		
			<polyline fill="none" stroke="#1ABC9C" stroke-width="2.5" stroke-linecap="round" stroke-linejoin="round" stroke-miterlimit="10" points="
			1199.561,85.979 1092.839,85.979 1092.839,202.403 1128.413,202.403 		"/>
	</g>
	<g id="POLYLINE_1011_">
		
			<rect x="976.415" y="85.979" fill="none" stroke="#1ABC9C" stroke-width="2.5" stroke-linecap="round" stroke-linejoin="round" stroke-miterlimit="10" width="116.424" height="116.424"/>
	</g>
	<g id="POLYLINE_1010_">
		
			<line fill="none" stroke="#1ABC9C" stroke-width="2.5" stroke-linecap="round" stroke-linejoin="round" stroke-miterlimit="10" x1="1128.413" y1="202.403" x2="1128.413" y2="85.979"/>
	</g>
	<g id="POLYLINE_1009_">
		
			<line fill="none" stroke="#1ABC9C" stroke-width="2.5" stroke-linecap="round" stroke-linejoin="round" stroke-miterlimit="10" x1="976.415" y1="237.977" x2="1092.839" y2="237.977"/>
	</g>
	<g id="POLYLINE_1008_">
		
			<polyline fill="none" stroke="#1ABC9C" stroke-width="2.5" stroke-linecap="round" stroke-linejoin="round" stroke-miterlimit="10" points="
			1092.839,202.403 1092.839,309.124 976.415,309.124 976.415,202.403 		"/>
	</g>
	<g id="POLYLINE_1007_">
		
			<line fill="none" stroke="#1ABC9C" stroke-width="2.5" stroke-linecap="round" stroke-linejoin="round" stroke-miterlimit="10" x1="976.415" y1="202.403" x2="1092.839" y2="202.403"/>
	</g>
	<g id="POLYLINE_503_">
		
			<line fill="none" stroke="#1ABC9C" stroke-width="2.5" stroke-linecap="round" stroke-linejoin="round" stroke-miterlimit="10" x1="976.415" y1="273.551" x2="1092.839" y2="273.551"/>
	</g>
	<g id="POLYLINE_502_">
		
			<rect x="976.415" y="309.124" fill="none" stroke="#1ABC9C" stroke-width="2.5" stroke-linecap="round" stroke-linejoin="round" stroke-miterlimit="10" width="116.424" height="116.424"/>
	</g>
	<g id="POLYLINE_501_">
		
			<rect x="1092.839" y="309.124" fill="none" stroke="#1ABC9C" stroke-width="2.5" stroke-linecap="round" stroke-linejoin="round" stroke-miterlimit="10" width="142.296" height="116.424"/>
	</g>
	<g id="POLYLINE_500_">
		
			<line fill="none" stroke="#1ABC9C" stroke-width="2.5" stroke-linecap="round" stroke-linejoin="round" stroke-miterlimit="10" x1="1199.561" y1="425.548" x2="1199.561" y2="309.124"/>
	</g>
	<g id="POLYLINE_499_">
		
			<line fill="none" stroke="#1ABC9C" stroke-width="2.5" stroke-linecap="round" stroke-linejoin="round" stroke-miterlimit="10" x1="1163.987" y1="425.548" x2="1163.987" y2="309.124"/>
	</g>
	<g id="POLYLINE_495_">
		
			<line fill="none" stroke="#1ABC9C" stroke-width="2.5" stroke-linecap="round" stroke-linejoin="round" stroke-miterlimit="10" x1="1128.413" y1="425.548" x2="1128.413" y2="309.124"/>
	</g>
	<g id="POLYLINE_494_">
		
			<polygon fill="none" stroke="#1ABC9C" stroke-width="2.5" stroke-linecap="round" stroke-linejoin="round" stroke-miterlimit="10" points="
			785.329,191.757 901.753,191.757 901.753,168.929 785.329,168.929 785.329,146.101 749.755,146.101 749.755,123.272 
			714.181,123.272 714.181,100.444 678.607,100.444 678.607,77.616 562.184,77.616 562.184,100.444 643.034,100.444 		"/>
	</g>
	<g id="POLYLINE_470_">
		
			<rect x="562.184" y="351.555" fill="none" stroke="#1ABC9C" stroke-width="2.5" stroke-linecap="round" stroke-linejoin="round" stroke-miterlimit="10" width="116.424" height="22.828"/>
	</g>
	<g id="POLYLINE_453_">
		
			<rect x="562.184" y="374.383" fill="none" stroke="#1ABC9C" stroke-width="2.5" stroke-linecap="round" stroke-linejoin="round" stroke-miterlimit="10" width="116.424" height="22.828"/>
	</g>
	<g id="POLYLINE_451_">
		
			<rect x="562.184" y="397.211" fill="none" stroke="#1ABC9C" stroke-width="2.5" stroke-linecap="round" stroke-linejoin="round" stroke-miterlimit="10" width="116.424" height="22.828"/>
	</g>
	<g id="POLYLINE_450_">
		
			<rect x="562.184" y="420.039" fill="none" stroke="#1ABC9C" stroke-width="2.5" stroke-linecap="round" stroke-linejoin="round" stroke-miterlimit="10" width="116.424" height="22.828"/>
	</g>
	<g id="POLYLINE_449_">
		
			<rect x="562.184" y="442.867" fill="none" stroke="#1ABC9C" stroke-width="2.5" stroke-linecap="round" stroke-linejoin="round" stroke-miterlimit="10" width="116.424" height="22.828"/>
	</g>
	<g id="POLYLINE_443_">
		
			<polygon fill="none" stroke="#1ABC9C" stroke-width="2.5" stroke-linecap="round" stroke-linejoin="round" stroke-miterlimit="10" points="
			452.76,123.272 452.76,100.444 336.336,100.444 336.336,123.272 336.336,146.101 336.336,168.929 452.76,168.929 452.76,146.101 
					"/>
	</g>
	<g id="POLYLINE_442_">
		
			<rect x="336.336" y="77.616" fill="none" stroke="#1ABC9C" stroke-width="2.5" stroke-linecap="round" stroke-linejoin="round" stroke-miterlimit="10" width="116.424" height="22.828"/>
	</g>
	<g id="POLYLINE_441_">
		
			<polygon fill="none" stroke="#1ABC9C" stroke-width="2.5" stroke-linecap="round" stroke-linejoin="round" stroke-miterlimit="10" points="
			300.762,465.696 158.466,374.383 77.616,374.383 77.616,351.555 194.04,351.555 194.04,374.383 229.614,374.383 229.614,397.211 
			265.188,397.211 265.188,420.039 300.762,420.039 300.762,442.867 336.336,442.867 336.336,465.696 		"/>
	</g>
</g>
<g id="AG-OUTLINE">
</g>
</svg>
