{
  "asset": {
    "generator": "glTF Exporter addin for Revit",
    "version": "2.0"
  },
  "scene": 0,
  "scenes": [
    {
      "nodes": [
        0
      ]
    }
  ],
  "nodes": [
    {
      "name": "Root",
      "rotation": [
        0.707106769,
        0.0,
        0.0,
        -0.707106769
      ],
      "scale": [
        0.3048,
        0.3048,
        0.3048
      ],
      "children": [
        1,
        2,
        3,
        4,
        5
      ]
    },
    {
      "mesh": 0
    },
    {
      "mesh": 1
    },
    {
      "mesh": 2
    },
    {
      "mesh": 3
    },
    {
      "mesh": 4
    }
  ],
  "meshes": [
    {
      "name": "27dd0434-7ddd-40ec-8213-b31f1234dc93-00057f17",
      "primitives": [
        {
          "attributes": {
            "POSITION": 0,
            "NORMAL": 1
          },
          "indices": 2,
          "material": 0
        }
      ]
    },
    {
      "name": "27dd0434-7ddd-40ec-8213-b31f1234dc93-00057f18",
      "primitives": [
        {
          "attributes": {
            "POSITION": 3,
            "NORMAL": 4
          },
          "indices": 5,
          "material": 0
        }
      ]
    },
    {
      "name": "27dd0434-7ddd-40ec-8213-b31f1234dc93-00057f19",
      "primitives": [
        {
          "attributes": {
            "POSITION": 6,
            "NORMAL": 7
          },
          "indices": 8,
          "material": 0
        }
      ]
    },
    {
      "name": "27dd0434-7ddd-40ec-8213-b31f1234dc93-00057f1a",
      "primitives": [
        {
          "attributes": {
            "POSITION": 9,
            "NORMAL": 10
          },
          "indices": 11,
          "material": 0
        }
      ]
    },
    {
      "name": "27dd0434-7ddd-40ec-8213-b31f1234dc93-00057f29",
      "primitives": [
        {
          "attributes": {
            "POSITION": 12,
            "NORMAL": 13
          },
          "indices": 14,
          "material": 1
        }
      ]
    }
  ],
  "buffers": [
    {
      "uri": "RevitWallsRoom2x2x2m_0.bin",
      "byteLength": 18108
    }
  ],
  "bufferViews": [
    {
      "buffer": 0,
      "byteOffset": 0,
      "byteLength": 7392,
      "byteStride": 12,
      "target": 34962
    },
    {
      "buffer": 0,
      "byteOffset": 7392,
      "byteLength": 7392,
      "byteStride": 12,
      "target": 34962
    },
    {
      "buffer": 0,
      "byteOffset": 14784,
      "byteLength": 3324,
      "target": 34963
    }
  ],
  "accessors": [
    {
      "bufferView": 0,
      "byteOffset": 0,
      "componentType": 5126,
      "count": 28,
      "type": "VEC3",
      "max": [
        -2.952756,
        2.952756,
        6.56168
      ],
      "min": [
        -3.608924,
        -3.608924,
        -2.646978E-23
      ]
    },
    {
      "bufferView": 1,
      "byteOffset": 0,
      "componentType": 5126,
      "count": 28,
      "type": "VEC3"
    },
    {
      "bufferView": 2,
      "byteOffset": 0,
      "componentType": 5123,
      "count": 48,
      "type": "SCALAR"
    },
    {
      "bufferView": 0,
      "byteOffset": 336,
      "componentType": 5126,
      "count": 28,
      "type": "VEC3",
      "max": [
        3.608924,
        -2.952756,
        6.56168
      ],
      "min": [
        -2.952756,
        -3.608924,
        -1.323489E-23
      ]
    },
    {
      "bufferView": 1,
      "byteOffset": 336,
      "componentType": 5126,
      "count": 28,
      "type": "VEC3"
    },
    {
      "bufferView": 2,
      "byteOffset": 96,
      "componentType": 5123,
      "count": 48,
      "type": "SCALAR"
    },
    {
      "bufferView": 0,
      "byteOffset": 672,
      "componentType": 5126,
      "count": 28,
      "type": "VEC3",
      "max": [
        3.608924,
        3.608924,
        6.56168
      ],
      "min": [
        2.952756,
        -2.952756,
        -1.323489E-23
      ]
    },
    {
      "bufferView": 1,
      "byteOffset": 672,
      "componentType": 5126,
      "count": 28,
      "type": "VEC3"
    },
    {
      "bufferView": 2,
      "byteOffset": 192,
      "componentType": 5123,
      "count": 48,
      "type": "SCALAR"
    },
    {
      "bufferView": 0,
      "byteOffset": 1008,
      "componentType": 5126,
      "count": 28,
      "type": "VEC3",
      "max": [
        2.952756,
        3.608924,
        6.56168
      ],
      "min": [
        -3.608924,
        2.952756,
        -1.323489E-23
      ]
    },
    {
      "bufferView": 1,
      "byteOffset": 1008,
      "componentType": 5126,
      "count": 28,
      "type": "VEC3"
    },
    {
      "bufferView": 2,
      "byteOffset": 288,
      "componentType": 5123,
      "count": 48,
      "type": "SCALAR"
    },
    {
      "bufferView": 0,
      "byteOffset": 1344,
      "componentType": 5126,
      "count": 504,
      "type": "VEC3",
      "max": [
        10.419508,
        -5.455226,
        0.0
      ],
      "min": [
        -7.62505531,
        -7.46361065,
        0.0
      ]
    },
    {
      "bufferView": 1,
      "byteOffset": 1344,
      "componentType": 5126,
      "count": 504,
      "type": "VEC3"
    },
    {
      "bufferView": 2,
      "byteOffset": 384,
      "componentType": 5123,
      "count": 1470,
      "type": "SCALAR"
    }
  ],
  "materials": [
    {
      "name": "Default Wall",
      "pbrMetallicRoughness": {
        "baseColorFactor": [
          1.0,
          1.0,
          0.0,
          1.0
        ],
        "metallicFactor": 0.5,
        "roughnessFactor": 1.0
      },
      "doubleSided": true
    },
    {
      "name": "DEFAULT",
      "pbrMetallicRoughness": {
        "baseColorFactor": [
          0.498039216,
          0.498039216,
          0.498039216,
          1.0
        ],
        "roughnessFactor": 1.0
      },
      "doubleSided": true
    }
  ]
}